<svg xmlns="http://www.w3.org/2000/svg" viewBox="0 0 480 300">
  <!-- tkLeen 이론 사전 커버 · 플랫 카툰 v1 — 비례 재보험: 손해 크기와 무관하게 모든 손해를 같은 비율로 분담 -->
  <defs>
    <pattern id="dots" width="28" height="28" patternUnits="userSpaceOnUse">
      <circle cx="14" cy="14" r="1.3" fill="#171A20" fill-opacity=".05"/>
    </pattern>
  </defs>
  <rect width="480" height="300" fill="#FAFAF7"/>
  <rect width="480" height="300" fill="url(#dots)"/>
  <line x1="90" y1="238" x2="390" y2="238" stroke="#171A20" stroke-width="3" stroke-linecap="round"/>
  <!-- 손해 막대: 상단 일정 비율(Sky)은 출재, 하단은 보유 -->
  <g stroke="#171A20" stroke-width="2.5">
    <rect x="130" y="182" width="50" height="56" fill="#EAF2F9"/>
    <rect x="130" y="158" width="50" height="24" fill="#4A90C2"/>
    <rect x="215" y="147" width="50" height="91" fill="#EAF2F9"/>
    <rect x="215" y="108" width="50" height="39" fill="#4A90C2"/>
    <rect x="300" y="119" width="50" height="119" fill="#EAF2F9"/>
    <rect x="300" y="68" width="50" height="51" fill="#4A90C2"/>
  </g>
  <text x="96" y="84" font-family="ui-monospace,Consolas,monospace" font-size="12" fill="#171A20" opacity=".55">q : 1−q</text>
  <!-- 비율을 확인하는 캐릭터 -->
  <g transform="translate(372 223)">
    <circle r="13" fill="#FFFFFF" stroke="#171A20" stroke-width="3"/>
    <circle cx="-4.5" cy="-2" r="1.8" fill="#171A20"/><circle cx="4.5" cy="-2" r="1.8" fill="#171A20"/>
    <path d="M -5 4 Q 0 8.5 5 4" fill="none" stroke="#171A20" stroke-width="2.2" stroke-linecap="round"/>
  </g>
  <g fill="#4A90C2"><rect x="446" y="272" width="8" height="8"/><rect x="454" y="264" width="8" height="8"/><rect x="462" y="256" width="8" height="8"/></g>
</svg>
