<svg xmlns="http://www.w3.org/2000/svg" viewBox="0 0 480 300">
  <!-- tkLeen 이론 사전 커버 · 플랫 카툰 v1 — 비비례 재보험: 손해 크기 구간별 레이어 — 보유층 위를 재보험층(Sky)이 덮는다 -->
  <defs>
    <pattern id="dots" width="28" height="28" patternUnits="userSpaceOnUse">
      <circle cx="14" cy="14" r="1.3" fill="#171A20" fill-opacity=".05"/>
    </pattern>
  </defs>
  <rect width="480" height="300" fill="#FAFAF7"/>
  <rect width="480" height="300" fill="url(#dots)"/>
  <line x1="130" y1="238" x2="350" y2="238" stroke="#171A20" stroke-width="3" stroke-linecap="round"/>
  <!-- 레이어 스택: 보유(파스텔) → 1층(Sky) → 상위층(화이트) -->
  <rect x="150" y="178" width="180" height="60" fill="#EAF2F9" stroke="#171A20" stroke-width="3"/>
  <rect x="150" y="128" width="180" height="50" fill="#4A90C2" stroke="#171A20" stroke-width="3"/>
  <rect x="150" y="88" width="180" height="40" fill="#FFFFFF" stroke="#171A20" stroke-width="3"/>
  <!-- 손해 크기 방향 -->
  <g stroke="#171A20" stroke-width="2.5" stroke-linecap="round" opacity=".5">
    <line x1="356" y1="210" x2="356" y2="100"/>
  </g>
  <path d="M 350 104 L 356 92 L 362 104 Z" fill="#171A20" opacity=".5"/>
  <!-- 레이어 위 캐릭터 -->
  <g transform="translate(240 73)">
    <circle r="13" fill="#FFFFFF" stroke="#171A20" stroke-width="3"/>
    <circle cx="-4.5" cy="-2" r="1.8" fill="#171A20"/><circle cx="4.5" cy="-2" r="1.8" fill="#171A20"/>
    <path d="M -5 4 Q 0 8.5 5 4" fill="none" stroke="#171A20" stroke-width="2.2" stroke-linecap="round"/>
  </g>
  <g fill="#4A90C2"><rect x="446" y="272" width="8" height="8"/><rect x="454" y="264" width="8" height="8"/><rect x="462" y="256" width="8" height="8"/></g>
</svg>
