<svg xmlns="http://www.w3.org/2000/svg" viewBox="0 0 480 300">
  <!-- tkLeen 이론 사전 커버 · 플랫 카툰 v1 — 초과손해율 재보험: 한도 d를 넘는 손해 꼬리만 재보험(Sky)이 인수 -->
  <defs>
    <pattern id="dots" width="28" height="28" patternUnits="userSpaceOnUse">
      <circle cx="14" cy="14" r="1.3" fill="#171A20" fill-opacity=".05"/>
    </pattern>
  </defs>
  <rect width="480" height="300" fill="#FAFAF7"/>
  <rect width="480" height="300" fill="url(#dots)"/>
  <!-- 분포 본체(보유, 파스텔) -->
  <path d="M 80 232 C 110 120 150 96 190 110 C 230 124 262 150 290 180 L 290 238 L 80 238 Z" fill="#EAF2F9"/>
  <!-- 한도 초과 꼬리(출재, Sky) -->
  <path d="M 290 180 C 330 202 370 216 410 226 L 410 238 L 290 238 Z" fill="#4A90C2"/>
  <!-- 분포 곡선 외곽선 -->
  <path d="M 80 232 C 110 120 150 96 190 110 C 250 132 320 196 410 226" fill="none" stroke="#171A20" stroke-width="2.5" stroke-linecap="round"/>
  <path d="M 72 70 L 72 238 L 420 238" fill="none" stroke="#171A20" stroke-width="3" stroke-linecap="round" stroke-linejoin="round"/>
  <!-- 한도 d -->
  <line x1="290" y1="104" x2="290" y2="238" stroke="#171A20" stroke-width="2.5" stroke-dasharray="7 6" opacity=".55"/>
  <text x="284" y="258" font-family="ui-monospace,Consolas,monospace" font-size="12" fill="#171A20" opacity=".55">d</text>
  <!-- 한도 위에서 지키는 캐릭터 -->
  <g transform="translate(290 88)">
    <circle r="13" fill="#FFFFFF" stroke="#171A20" stroke-width="3"/>
    <circle cx="-4.5" cy="-2" r="1.8" fill="#171A20"/><circle cx="4.5" cy="-2" r="1.8" fill="#171A20"/>
    <path d="M -5 4 Q 0 8.5 5 4" fill="none" stroke="#171A20" stroke-width="2.2" stroke-linecap="round"/>
  </g>
  <g fill="#4A90C2"><rect x="446" y="272" width="8" height="8"/><rect x="454" y="264" width="8" height="8"/><rect x="462" y="256" width="8" height="8"/></g>
</svg>
