<svg xmlns="http://www.w3.org/2000/svg" viewBox="0 0 480 300">
<!-- tkLeen 이론 사전 커버 · 플랫 카툰 v1 — 간접손해: 화재로 멈춘 공장과 그로 인한 이익(간접손해) 하락 -->
<defs><pattern id="dots" width="28" height="28" patternUnits="userSpaceOnUse"><circle cx="14" cy="14" r="1.3" fill="#171A20" fill-opacity=".05"/></pattern></defs>
<rect width="480" height="300" fill="#FAFAF7"/>
<rect width="480" height="300" fill="url(#dots)"/>
<rect x="160" y="140" width="86" height="84" fill="#FFFFFF" stroke="#171A20" stroke-width="3"/><rect x="174" y="154" width="14" height="14" fill="#EAF2F9" stroke="#171A20" stroke-width="2"/><rect x="174" y="175" width="14" height="14" fill="#EAF2F9" stroke="#171A20" stroke-width="2"/><rect x="174" y="196" width="14" height="14" fill="#EAF2F9" stroke="#171A20" stroke-width="2"/><rect x="196" y="154" width="14" height="14" fill="#EAF2F9" stroke="#171A20" stroke-width="2"/><rect x="196" y="175" width="14" height="14" fill="#EAF2F9" stroke="#171A20" stroke-width="2"/><rect x="196" y="196" width="14" height="14" fill="#EAF2F9" stroke="#171A20" stroke-width="2"/><rect x="218" y="154" width="14" height="14" fill="#EAF2F9" stroke="#171A20" stroke-width="2"/><rect x="218" y="175" width="14" height="14" fill="#EAF2F9" stroke="#171A20" stroke-width="2"/><rect x="218" y="196" width="14" height="14" fill="#EAF2F9" stroke="#171A20" stroke-width="2"/><rect x="190" y="118" width="16" height="24" fill="#FFFFFF" stroke="#171A20" stroke-width="2.5"/><path d="M 198 118 q -8 -10 0 -18 q 8 8 0 18" fill="#EAF2F9" stroke="#171A20" stroke-width="2"/><g transform="translate(222 175)"><circle r="15" fill="#FFFFFF" stroke="#171A20" stroke-width="3"/><path d="M -6 0 L 6 0 M 0 -6 L 0 6" stroke="#4A90C2" stroke-width="3" stroke-linecap="round"/></g><path d="M 300 120 L 360 200" stroke="#4A90C2" stroke-width="5" stroke-linecap="round"/><path d="M 360 200 l 2 -16 l -14 6 Z" fill="#4A90C2"/><text x="310" y="118" font-family="ui-monospace,Consolas,monospace" font-size="11" fill="#171A20" fill-opacity=".55" text-anchor="start">profit</text><g transform="translate(330 150) scale(1.0)"><circle r="13" fill="#FFFFFF" stroke="#171A20" stroke-width="3"/><circle cx="-4.5" cy="-2" r="1.8" fill="#171A20"/><circle cx="4.5" cy="-2" r="1.8" fill="#171A20"/><path d="M -5 6 Q 0 2 5 6" fill="none" stroke="#171A20" stroke-width="2.2" stroke-linecap="round"/><path d="M 12 -10 q 3 4 0 6 q -3 -2 0 -6" fill="#4A90C2"/></g>
<g fill="#4A90C2"><rect x="446" y="272" width="8" height="8"/><rect x="454" y="264" width="8" height="8"/><rect x="462" y="256" width="8" height="8"/></g>
</svg>
