<svg xmlns="http://www.w3.org/2000/svg" viewBox="0 0 480 300">
<!-- tkLeen 이론 사전 커버 · 플랫 카툰 v1 — 고용관행배상책임보험: 고용분쟁(법봉) 속 사용자·직원과 보호 방패 -->
<defs><pattern id="dots" width="28" height="28" patternUnits="userSpaceOnUse"><circle cx="14" cy="14" r="1.3" fill="#171A20" fill-opacity=".05"/></pattern></defs>
<rect width="480" height="300" fill="#FAFAF7"/>
<rect width="480" height="300" fill="url(#dots)"/>
<g transform="translate(160 170) scale(1.0)"><circle r="13" fill="#FFF7ED" stroke="#171A20" stroke-width="3"/><circle cx="-4.5" cy="-2" r="1.8" fill="#171A20"/><circle cx="4.5" cy="-2" r="1.8" fill="#171A20"/><path d="M -5 6 Q 0 2 5 6" fill="none" stroke="#171A20" stroke-width="2.2" stroke-linecap="round"/></g><g transform="translate(316 170) scale(1.0)"><circle r="13" fill="#EEF4FF" stroke="#171A20" stroke-width="3"/><circle cx="-4.5" cy="-2" r="1.8" fill="#171A20"/><circle cx="4.5" cy="-2" r="1.8" fill="#171A20"/><path d="M -5 6 Q 0 2 5 6" fill="none" stroke="#171A20" stroke-width="2.2" stroke-linecap="round"/></g><g transform="translate(238 150) rotate(-18)"><rect x="-26" y="-8" width="52" height="16" rx="4" fill="#EAF2F9" stroke="#171A20" stroke-width="2.5"/><rect x="-4" y="6" width="8" height="40" fill="#FFFFFF" stroke="#171A20" stroke-width="2.5"/></g><rect x="206" y="200" width="64" height="10" rx="3" fill="#171A20"/><g transform="translate(238 96) scale(0.66)"><path d="M 0 -28 L 24 -18 L 24 6 Q 24 26 0 36 Q -24 26 -24 6 L -24 -18 Z" fill="#EAF2F9" stroke="#171A20" stroke-width="3" stroke-linejoin="round"/><path d="M -10 1 L -2 10 L 13 -10" fill="none" stroke="#4A90C2" stroke-width="4" stroke-linecap="round" stroke-linejoin="round"/></g>
<g fill="#4A90C2"><rect x="446" y="272" width="8" height="8"/><rect x="454" y="264" width="8" height="8"/><rect x="462" y="256" width="8" height="8"/></g>
</svg>
