<svg xmlns="http://www.w3.org/2000/svg" viewBox="0 0 480 300">
<!-- tkLeen 이론 사전 커버 · 플랫 카툰 v1 — 금융보험: 신용·보증(채권서류·동전)을 지키는 금융보장 방패 -->
<defs><pattern id="dots" width="28" height="28" patternUnits="userSpaceOnUse"><circle cx="14" cy="14" r="1.3" fill="#171A20" fill-opacity=".05"/></pattern></defs>
<rect width="480" height="300" fill="#FAFAF7"/>
<rect width="480" height="300" fill="url(#dots)"/>
<path d="M 150 118 L 202 118 L 220 136 L 220 210 L 150 210 Z" fill="#FFFFFF" stroke="#171A20" stroke-width="3" stroke-linejoin="round"/><path d="M 202 118 L 220 136 L 202 136 Z" fill="#EAF2F9" stroke="#171A20" stroke-width="2.5" stroke-linejoin="round"/><path d="M 162 148 L 206 148" stroke="#171A20" stroke-width="2" stroke-opacity=".4" stroke-linecap="round"/><path d="M 162 162 L 206 162" stroke="#171A20" stroke-width="2" stroke-opacity=".4" stroke-linecap="round"/><path d="M 162 176 L 206 176" stroke="#171A20" stroke-width="2" stroke-opacity=".4" stroke-linecap="round"/><text x="166" y="144" font-family="ui-monospace,Consolas,monospace" font-size="11" fill="#171A20" fill-opacity=".55" text-anchor="start">BOND</text><ellipse cx="186" cy="193" rx="26" ry="9" fill="#EAF2F9" stroke="#171A20" stroke-width="2.5"/><text x="186" y="197" font-family="ui-monospace,Consolas,monospace" font-size="11" fill="#171A20" fill-opacity=".55" text-anchor="middle">$</text><ellipse cx="186" cy="206" rx="26" ry="9" fill="#EAF2F9" stroke="#171A20" stroke-width="2.5"/><text x="186" y="210" font-family="ui-monospace,Consolas,monospace" font-size="11" fill="#171A20" fill-opacity=".55" text-anchor="middle">$</text><g transform="translate(322 158) scale(1.15)"><path d="M 0 -28 L 24 -18 L 24 6 Q 24 26 0 36 Q -24 26 -24 6 L -24 -18 Z" fill="#EAF2F9" stroke="#171A20" stroke-width="3" stroke-linejoin="round"/><path d="M -10 1 L -2 10 L 13 -10" fill="none" stroke="#4A90C2" stroke-width="4" stroke-linecap="round" stroke-linejoin="round"/></g><g transform="translate(322 158)"><text x="0" y="6" font-family="ui-monospace,Consolas,monospace" font-size="18" fill="#4A90C2" text-anchor="middle">%</text></g>
<g fill="#4A90C2"><rect x="446" y="272" width="8" height="8"/><rect x="454" y="264" width="8" height="8"/><rect x="462" y="256" width="8" height="8"/></g>
</svg>
