<svg xmlns="http://www.w3.org/2000/svg" viewBox="0 0 480 300">
<!-- tkLeen 이론 사전 커버 · 플랫 카툰 v1 — 농작물보험: 비·가뭄 등 날씨위험에 노출된 밭과 농부 -->
<defs><pattern id="dots" width="28" height="28" patternUnits="userSpaceOnUse"><circle cx="14" cy="14" r="1.3" fill="#171A20" fill-opacity=".05"/></pattern></defs>
<rect width="480" height="300" fill="#FAFAF7"/>
<rect width="480" height="300" fill="url(#dots)"/>
<path d="M 120 214 L 360 214" stroke="#171A20" stroke-width="3" stroke-linecap="round"/><path d="M 160 214 L 160 178 M 160 192 l -10 -8 M 160 192 l 10 -8 M 160 200 l -10 -7 M 160 200 l 10 -7" stroke="#4A90C2" stroke-width="3" stroke-linecap="round"/><path d="M 200 214 L 200 178 M 200 192 l -10 -8 M 200 192 l 10 -8 M 200 200 l -10 -7 M 200 200 l 10 -7" stroke="#4A90C2" stroke-width="3" stroke-linecap="round"/><path d="M 240 214 L 240 178 M 240 192 l -10 -8 M 240 192 l 10 -8 M 240 200 l -10 -7 M 240 200 l 10 -7" stroke="#4A90C2" stroke-width="3" stroke-linecap="round"/><path d="M 280 214 L 280 178 M 280 192 l -10 -8 M 280 192 l 10 -8 M 280 200 l -10 -7 M 280 200 l 10 -7" stroke="#4A90C2" stroke-width="3" stroke-linecap="round"/><path d="M 250 96 q -26 0 -26 18 q -22 2 -16 18 l 70 0 q 8 -16 -10 -20 q -2 -16 -18 -14 Z" fill="#EAF2F9" stroke="#171A20" stroke-width="2.5" stroke-linejoin="round"/><path d="M 236 134 L 232 150" stroke="#4A90C2" stroke-width="3" stroke-linecap="round"/><path d="M 252 134 L 248 150" stroke="#4A90C2" stroke-width="3" stroke-linecap="round"/><path d="M 268 134 L 264 150" stroke="#4A90C2" stroke-width="3" stroke-linecap="round"/><g transform="translate(330 150) scale(1.0)"><circle r="13" fill="#FFFFFF" stroke="#171A20" stroke-width="3"/><circle cx="-4.5" cy="-2" r="1.8" fill="#171A20"/><circle cx="4.5" cy="-2" r="1.8" fill="#171A20"/><path d="M -4.5 5 L 4.5 5" fill="none" stroke="#171A20" stroke-width="2.2" stroke-linecap="round"/></g>
<g fill="#4A90C2"><rect x="446" y="272" width="8" height="8"/><rect x="454" y="264" width="8" height="8"/><rect x="462" y="256" width="8" height="8"/></g>
</svg>
