<svg xmlns="http://www.w3.org/2000/svg" viewBox="0 0 480 300">
<!-- tkLeen 이론 사전 커버 · 플랫 카툰 v1 — 담보: 하나의 우산(보장) 아래 위험·대상·한도·조건 4요소 -->
<defs><pattern id="dots" width="28" height="28" patternUnits="userSpaceOnUse"><circle cx="14" cy="14" r="1.3" fill="#171A20" fill-opacity=".05"/></pattern></defs>
<rect width="480" height="300" fill="#FAFAF7"/>
<rect width="480" height="300" fill="url(#dots)"/>
<g transform="translate(240 118) scale(1.0)"><path d="M -56 0 Q 0 -60 56 0 Q 28 -13 0 0 Q -28 -13 -56 0 Z" fill="#4A90C2" stroke="#171A20" stroke-width="3" stroke-linejoin="round"/><path d="M 0 0 L 0 44 Q 0 54 11 54" fill="none" stroke="#171A20" stroke-width="3" stroke-linecap="round"/></g><g><rect x="150" y="178" width="34" height="34" rx="6" fill="#EAF2F9" stroke="#171A20" stroke-width="2.5"/><rect x="196" y="178" width="34" height="34" rx="6" fill="#EAF2F9" stroke="#171A20" stroke-width="2.5"/><rect x="242" y="178" width="34" height="34" rx="6" fill="#EAF2F9" stroke="#171A20" stroke-width="2.5"/><rect x="288" y="178" width="34" height="34" rx="6" fill="#EAF2F9" stroke="#171A20" stroke-width="2.5"/></g><text x="167" y="200" font-family="ui-monospace,Consolas,monospace" font-size="12" fill="#171A20" fill-opacity=".55" text-anchor="middle">위</text><text x="213" y="200" font-family="ui-monospace,Consolas,monospace" font-size="12" fill="#171A20" fill-opacity=".55" text-anchor="middle">물</text><text x="259" y="200" font-family="ui-monospace,Consolas,monospace" font-size="12" fill="#171A20" fill-opacity=".55" text-anchor="middle">액</text><text x="305" y="200" font-family="ui-monospace,Consolas,monospace" font-size="12" fill="#171A20" fill-opacity=".55" text-anchor="middle">건</text>
<g fill="#4A90C2"><rect x="446" y="272" width="8" height="8"/><rect x="454" y="264" width="8" height="8"/><rect x="462" y="256" width="8" height="8"/></g>
</svg>
