<svg xmlns="http://www.w3.org/2000/svg" viewBox="0 0 480 300">
<!-- tkLeen 이론 사전 커버 · 플랫 카툰 v1 — 도난보험: 자물쇠·방패로 도난 위험을 보장 -->
<defs>
<pattern id="dots" width="28" height="28" patternUnits="userSpaceOnUse"><circle cx="14" cy="14" r="1.3" fill="#171A20" fill-opacity=".05"/></pattern>
</defs>
<rect width="480" height="300" fill="#FAFAF7"/>
<rect width="480" height="300" fill="url(#dots)"/>
<!-- 방패 -->
<path d="M 240 78 L 300 100 Q 300 180 240 224 Q 180 180 180 100 Z" fill="#EAF2F9" stroke="#171A20" stroke-width="3" stroke-linejoin="round"/>
<!-- 자물쇠(Sky) -->
<rect x="222" y="146" width="36" height="30" rx="4" fill="#4A90C2" stroke="#171A20" stroke-width="3"/>
<path d="M 228 146 v -10 a 12 12 0 0 1 24 0 v 10" fill="none" stroke="#171A20" stroke-width="3"/>
<circle cx="240" cy="160" r="3.5" fill="#FFFFFF"/>
<!-- 지키는 사람 -->
<g transform="translate(330 168)"><circle r="13" fill="#FFFFFF" stroke="#171A20" stroke-width="3"/><circle cx="-4.5" cy="-2" r="1.8" fill="#171A20"/><circle cx="4.5" cy="-2" r="1.8" fill="#171A20"/><path d="M -4.5 5 L 4.5 5" fill="none" stroke="#171A20" stroke-width="2.2" stroke-linecap="round"/></g>
<g fill="#4A90C2"><rect x="446" y="272" width="8" height="8"/><rect x="454" y="264" width="8" height="8"/><rect x="462" y="256" width="8" height="8"/></g>
</svg>
