<svg xmlns="http://www.w3.org/2000/svg" viewBox="0 0 480 300">
<!-- tkLeen 이론 사전 커버 · 플랫 카툰 v1 — 미국의모기지보험: 고LTV 주택대출에서 대주를 보호하는 방패 -->
<defs><pattern id="dots" width="28" height="28" patternUnits="userSpaceOnUse"><circle cx="14" cy="14" r="1.3" fill="#171A20" fill-opacity=".05"/></pattern></defs>
<rect width="480" height="300" fill="#FAFAF7"/>
<rect width="480" height="300" fill="url(#dots)"/>
<path d="M 160 210 L 160 158 L 215 118 L 270 158 L 270 210 Z" fill="#FFFFFF" stroke="#171A20" stroke-width="3" stroke-linejoin="round"/><rect x="198" y="172" width="34" height="38" fill="#EAF2F9" stroke="#171A20" stroke-width="2.5"/><text x="215" y="150" font-family="ui-monospace,Consolas,monospace" font-size="11" fill="#171A20" fill-opacity=".55" text-anchor="middle">LTV>80%</text><g transform="translate(330 162) scale(1.12)"><path d="M 0 -28 L 24 -18 L 24 6 Q 24 26 0 36 Q -24 26 -24 6 L -24 -18 Z" fill="#EAF2F9" stroke="#171A20" stroke-width="3" stroke-linejoin="round"/><path d="M -10 1 L -2 10 L 13 -10" fill="none" stroke="#4A90C2" stroke-width="4" stroke-linecap="round" stroke-linejoin="round"/></g><g transform="translate(330 162)"><text x="0" y="6" font-family="ui-monospace,Consolas,monospace" font-size="15" fill="#4A90C2" text-anchor="middle">MI</text></g>
<g fill="#4A90C2"><rect x="446" y="272" width="8" height="8"/><rect x="454" y="264" width="8" height="8"/><rect x="462" y="256" width="8" height="8"/></g>
</svg>
