<svg xmlns="http://www.w3.org/2000/svg" viewBox="0 0 480 300">
<!-- tkLeen 이론 사전 커버 · 플랫 카툰 v1 — 보험시장의 과점: 소수의 큰 회사가 시장을 분점 -->
<defs>
<pattern id="dots" width="28" height="28" patternUnits="userSpaceOnUse"><circle cx="14" cy="14" r="1.3" fill="#171A20" fill-opacity=".05"/></pattern>
</defs>
<rect width="480" height="300" fill="#FAFAF7"/>
<rect width="480" height="300" fill="url(#dots)"/>
<line x1="72" y1="232" x2="408" y2="232" stroke="#171A20" stroke-width="3" stroke-linecap="round"/>
<!-- 큰 회사 두셋 + 작은 회사들 -->
<rect x="110" y="120" width="60" height="112" fill="#4A90C2" stroke="#171A20" stroke-width="3"/>
<rect x="184" y="142" width="60" height="90" fill="#EAF2F9" stroke="#171A20" stroke-width="3"/>
<rect x="258" y="170" width="44" height="62" fill="#EAF2F9" stroke="#171A20" stroke-width="3"/>
<rect x="312" y="200" width="26" height="32" fill="#EAF2F9" stroke="#171A20" stroke-width="3"/>
<rect x="346" y="208" width="26" height="24" fill="#EAF2F9" stroke="#171A20" stroke-width="3"/>
<text x="140" y="110" text-anchor="middle" font-family="ui-monospace,Consolas,monospace" font-size="11" fill="#171A20" fill-opacity=".55">상위 소수</text>
<g transform="translate(140 96)"><circle r="13" fill="#FFFFFF" stroke="#171A20" stroke-width="3"/><circle cx="-4.5" cy="-2" r="1.8" fill="#171A20"/><circle cx="4.5" cy="-2" r="1.8" fill="#171A20"/><path d="M -5 3 Q 0 9.5 5 3 Z" fill="#171A20" stroke="#171A20" stroke-width="2.2" stroke-linejoin="round"/></g>
<g fill="#4A90C2"><rect x="446" y="272" width="8" height="8"/><rect x="454" y="264" width="8" height="8"/><rect x="462" y="256" width="8" height="8"/></g>
</svg>
