<svg xmlns="http://www.w3.org/2000/svg" viewBox="0 0 480 300">
<!-- tkLeen 이론 사전 커버 · 플랫 카툰 v1 — 사업비율: 운영비(동전·톱니)를 보험료로 나눈 효율 지표 -->
<defs><pattern id="dots" width="28" height="28" patternUnits="userSpaceOnUse"><circle cx="14" cy="14" r="1.3" fill="#171A20" fill-opacity=".05"/></pattern></defs>
<rect width="480" height="300" fill="#FAFAF7"/>
<rect width="480" height="300" fill="url(#dots)"/>
<ellipse cx="180" cy="184" rx="26" ry="9" fill="#EAF2F9" stroke="#171A20" stroke-width="2.5"/><text x="180" y="188" font-family="ui-monospace,Consolas,monospace" font-size="11" fill="#171A20" fill-opacity=".55" text-anchor="middle">$</text><ellipse cx="180" cy="197" rx="26" ry="9" fill="#EAF2F9" stroke="#171A20" stroke-width="2.5"/><text x="180" y="201" font-family="ui-monospace,Consolas,monospace" font-size="11" fill="#171A20" fill-opacity=".55" text-anchor="middle">$</text><ellipse cx="180" cy="210" rx="26" ry="9" fill="#EAF2F9" stroke="#171A20" stroke-width="2.5"/><text x="180" y="214" font-family="ui-monospace,Consolas,monospace" font-size="11" fill="#171A20" fill-opacity=".55" text-anchor="middle">$</text><g transform="translate(255 120)"><circle r="22" fill="none" stroke="#171A20" stroke-width="3"/><circle r="8" fill="#EAF2F9" stroke="#171A20" stroke-width="2.5"/><rect x="-4" y="-30" width="8" height="9" fill="#4A90C2" transform="rotate(0)"/><rect x="-4" y="-30" width="8" height="9" fill="#4A90C2" transform="rotate(45)"/><rect x="-4" y="-30" width="8" height="9" fill="#4A90C2" transform="rotate(90)"/><rect x="-4" y="-30" width="8" height="9" fill="#4A90C2" transform="rotate(135)"/><rect x="-4" y="-30" width="8" height="9" fill="#4A90C2" transform="rotate(180)"/><rect x="-4" y="-30" width="8" height="9" fill="#4A90C2" transform="rotate(225)"/><rect x="-4" y="-30" width="8" height="9" fill="#4A90C2" transform="rotate(270)"/><rect x="-4" y="-30" width="8" height="9" fill="#4A90C2" transform="rotate(315)"/></g><text x="232" y="250" font-family="ui-monospace,Consolas,monospace" font-size="13" fill="#171A20" fill-opacity=".55" text-anchor="start">E / P</text><g transform="translate(330 150) scale(1.0)"><circle r="13" fill="#FFFFFF" stroke="#171A20" stroke-width="3"/><circle cx="-4.5" cy="-2" r="1.8" fill="#171A20"/><circle cx="4.5" cy="-2" r="1.8" fill="#171A20"/><path d="M -4.5 5 L 4.5 5" fill="none" stroke="#171A20" stroke-width="2.2" stroke-linecap="round"/><path d="M 12 -10 q 3 4 0 6 q -3 -2 0 -6" fill="#4A90C2"/></g>
<g fill="#4A90C2"><rect x="446" y="272" width="8" height="8"/><rect x="454" y="264" width="8" height="8"/><rect x="462" y="256" width="8" height="8"/></g>
</svg>
