<svg xmlns="http://www.w3.org/2000/svg" viewBox="0 0 480 300">
<!-- tkLeen 이론 사전 커버 · 플랫 카툰 v1 — 사용자배상책임: 업무재해 근로자와 사용자 과실을 다투는 저울 -->
<defs><pattern id="dots" width="28" height="28" patternUnits="userSpaceOnUse"><circle cx="14" cy="14" r="1.3" fill="#171A20" fill-opacity=".05"/></pattern></defs>
<rect width="480" height="300" fill="#FAFAF7"/>
<rect width="480" height="300" fill="url(#dots)"/>
<g transform="translate(180 175) scale(1.0)"><circle r="13" fill="#FFFFFF" stroke="#171A20" stroke-width="3"/><circle cx="-4.5" cy="-2" r="1.8" fill="#171A20"/><circle cx="4.5" cy="-2" r="1.8" fill="#171A20"/><path d="M -5 6 Q 0 2 5 6" fill="none" stroke="#171A20" stroke-width="2.2" stroke-linecap="round"/><path d="M -12 -6 Q 0 -22 12 -6 Z" fill="#4A90C2" stroke="#171A20" stroke-width="2.2" stroke-linejoin="round"/><path d="M -14 -6 L 14 -6" stroke="#171A20" stroke-width="2.2" stroke-linecap="round"/></g><path d="M 280 100 L 280 150 M 240 130 L 320 130" stroke="#171A20" stroke-width="3" stroke-linecap="round"/><path d="M 240 130 L 232 158 L 268 158 L 260 130" fill="#4A90C2" stroke="#171A20" stroke-width="2.5" stroke-linejoin="round"/><path d="M 320 130 L 312 154 L 348 154 L 340 130" fill="#EAF2F9" stroke="#171A20" stroke-width="2.5" stroke-linejoin="round"/><circle cx="280" cy="130" r="5" fill="#171A20"/><text x="280" y="200" font-family="ui-monospace,Consolas,monospace" font-size="12" fill="#171A20" fill-opacity=".55" text-anchor="middle">fault?</text>
<g fill="#4A90C2"><rect x="446" y="272" width="8" height="8"/><rect x="454" y="264" width="8" height="8"/><rect x="462" y="256" width="8" height="8"/></g>
</svg>
