<svg xmlns="http://www.w3.org/2000/svg" viewBox="0 0 480 300">
<!-- tkLeen 이론 사전 커버 · 플랫 카툰 v1 — 산업재해보상보험: 업무재해 근로자를 무과실로 보상하는 방패 -->
<defs><pattern id="dots" width="28" height="28" patternUnits="userSpaceOnUse"><circle cx="14" cy="14" r="1.3" fill="#171A20" fill-opacity=".05"/></pattern></defs>
<rect width="480" height="300" fill="#FAFAF7"/>
<rect width="480" height="300" fill="url(#dots)"/>
<g transform="translate(180 168) scale(1.0)"><circle r="13" fill="#FFFFFF" stroke="#171A20" stroke-width="3"/><circle cx="-4.5" cy="-2" r="1.8" fill="#171A20"/><circle cx="4.5" cy="-2" r="1.8" fill="#171A20"/><path d="M -4.5 5 L 4.5 5" fill="none" stroke="#171A20" stroke-width="2.2" stroke-linecap="round"/><path d="M -12 -6 Q 0 -22 12 -6 Z" fill="#4A90C2" stroke="#171A20" stroke-width="2.2" stroke-linejoin="round"/><path d="M -14 -6 L 14 -6" stroke="#171A20" stroke-width="2.2" stroke-linecap="round"/></g><g transform="translate(310 158) scale(1.15)"><path d="M 0 -28 L 24 -18 L 24 6 Q 24 26 0 36 Q -24 26 -24 6 L -24 -18 Z" fill="#EAF2F9" stroke="#171A20" stroke-width="3" stroke-linejoin="round"/></g><g transform="translate(310 158)"><path d="M -3 -13 L 3 -13 L 3 -3 L 13 -3 L 13 3 L 3 3 L 3 13 L -3 13 L -3 3 L -13 3 L -13 -3 L -3 -3 Z" fill="#4A90C2" stroke="#171A20" stroke-width="2" stroke-linejoin="round"/></g><text x="180" y="205" font-family="ui-monospace,Consolas,monospace" font-size="12" fill="#171A20" fill-opacity=".55" text-anchor="middle">no-fault</text>
<g fill="#4A90C2"><rect x="446" y="272" width="8" height="8"/><rect x="454" y="264" width="8" height="8"/><rect x="462" y="256" width="8" height="8"/></g>
</svg>
