<svg xmlns="http://www.w3.org/2000/svg" viewBox="0 0 480 300">
<!-- tkLeen 이론 사전 커버 · 플랫 카툰 v1 — 신뢰성분석: 직렬로 연결된 부품 블록의 시스템 신뢰도 -->
<defs><pattern id="dots" width="28" height="28" patternUnits="userSpaceOnUse"><circle cx="14" cy="14" r="1.3" fill="#171A20" fill-opacity=".05"/></pattern></defs>
<rect width="480" height="300" fill="#FAFAF7"/>
<rect width="480" height="300" fill="url(#dots)"/>
<path d="M 120 150 L 360 150" stroke="#171A20" stroke-width="3" stroke-linecap="round"/><rect x="150" y="132" width="40" height="36" rx="6" fill="#EAF2F9" stroke="#171A20" stroke-width="3"/><rect x="220" y="132" width="40" height="36" rx="6" fill="#4A90C2" stroke="#171A20" stroke-width="3"/><rect x="290" y="132" width="40" height="36" rx="6" fill="#EAF2F9" stroke="#171A20" stroke-width="3"/><text x="170" y="154" font-family="ui-monospace,Consolas,monospace" font-size="11" fill="#171A20" fill-opacity=".55" text-anchor="middle">R1</text><text x="240" y="154" font-family="ui-monospace,Consolas,monospace" font-size="11" fill="#171A20" fill-opacity=".85" text-anchor="middle">R2</text><text x="310" y="154" font-family="ui-monospace,Consolas,monospace" font-size="11" fill="#171A20" fill-opacity=".55" text-anchor="middle">R3</text><text x="240" y="205" font-family="ui-monospace,Consolas,monospace" font-size="12" fill="#171A20" fill-opacity=".55" text-anchor="middle">R(t)=ΠRi</text><g transform="translate(240 95) scale(1.0)"><circle r="13" fill="#FFFFFF" stroke="#171A20" stroke-width="3"/><circle cx="-4.5" cy="-2" r="1.8" fill="#171A20"/><circle cx="4.5" cy="-2" r="1.8" fill="#171A20"/><path d="M -5 4 Q 0 8.5 5 4" fill="none" stroke="#171A20" stroke-width="2.2" stroke-linecap="round"/></g>
<g fill="#4A90C2"><rect x="446" y="272" width="8" height="8"/><rect x="454" y="264" width="8" height="8"/><rect x="462" y="256" width="8" height="8"/></g>
</svg>
