<svg xmlns="http://www.w3.org/2000/svg" viewBox="0 0 480 300">
<!-- tkLeen 이론 사전 커버 · 플랫 카툰 v1 — 신원보증이행보증: 계약 이행·정직을 보증하는 도장과 악수 -->
<defs><pattern id="dots" width="28" height="28" patternUnits="userSpaceOnUse"><circle cx="14" cy="14" r="1.3" fill="#171A20" fill-opacity=".05"/></pattern></defs>
<rect width="480" height="300" fill="#FAFAF7"/>
<rect width="480" height="300" fill="url(#dots)"/>
<path d="M 178 108 L 234 108 L 252 126 L 252 202 L 178 202 Z" fill="#FFFFFF" stroke="#171A20" stroke-width="3" stroke-linejoin="round"/><path d="M 234 108 L 252 126 L 234 126 Z" fill="#EAF2F9" stroke="#171A20" stroke-width="2.5" stroke-linejoin="round"/><path d="M 190 138 L 238 138" stroke="#171A20" stroke-width="2" stroke-opacity=".4" stroke-linecap="round"/><path d="M 190 152 L 238 152" stroke="#171A20" stroke-width="2" stroke-opacity=".4" stroke-linecap="round"/><path d="M 190 166 L 238 166" stroke="#171A20" stroke-width="2" stroke-opacity=".4" stroke-linecap="round"/><g transform="translate(232 186)"><circle r="17" fill="#4A90C2" stroke="#171A20" stroke-width="3"/><text x="0" y="5" font-family="ui-monospace,Consolas,monospace" font-size="15" fill="#FFFFFF" text-anchor="middle">印</text></g><g transform="translate(322 140) scale(1.0)"><circle r="13" fill="#FFFFFF" stroke="#171A20" stroke-width="3"/><circle cx="-4.5" cy="-2" r="1.8" fill="#171A20"/><circle cx="4.5" cy="-2" r="1.8" fill="#171A20"/><path d="M -5 4 Q 0 8.5 5 4" fill="none" stroke="#171A20" stroke-width="2.2" stroke-linecap="round"/></g><text x="214" y="220" font-family="ui-monospace,Consolas,monospace" font-size="12" fill="#171A20" fill-opacity=".55" text-anchor="middle">bond</text>
<g fill="#4A90C2"><rect x="446" y="272" width="8" height="8"/><rect x="454" y="264" width="8" height="8"/><rect x="462" y="256" width="8" height="8"/></g>
</svg>
