<svg xmlns="http://www.w3.org/2000/svg" viewBox="0 0 480 300">
<!-- tkLeen 이론 사전 커버 · 플랫 카툰 v1 — 실업보험: 실직(서류가방)을 받쳐주는 사회 안전망 -->
<defs><pattern id="dots" width="28" height="28" patternUnits="userSpaceOnUse"><circle cx="14" cy="14" r="1.3" fill="#171A20" fill-opacity=".05"/></pattern></defs>
<rect width="480" height="300" fill="#FAFAF7"/>
<rect width="480" height="300" fill="url(#dots)"/>
<g transform="translate(240 118) scale(1.0)"><circle r="13" fill="#FFFFFF" stroke="#171A20" stroke-width="3"/><circle cx="-4.5" cy="-2" r="1.8" fill="#171A20"/><circle cx="4.5" cy="-2" r="1.8" fill="#171A20"/><path d="M -5 6 Q 0 2 5 6" fill="none" stroke="#171A20" stroke-width="2.2" stroke-linecap="round"/><path d="M -22 22 L -34 40 M 22 22 L 34 40" stroke="#171A20" stroke-width="2.5" stroke-linecap="round"/></g><rect x="226" y="132" width="28" height="20" rx="3" fill="#EAF2F9" stroke="#171A20" stroke-width="2.5"/><path d="M 150 188 L 330 188" stroke="#171A20" stroke-width="3" stroke-linecap="round"/><path d="M 162 188 Q 240 224 318 188" fill="#4A90C2" fill-opacity=".18"/><path d="M 162 188 Q 240 224 318 188" fill="none" stroke="#4A90C2" stroke-width="2.5"/><path d="M 186 188 Q 240 224 294 188" fill="none" stroke="#4A90C2" stroke-width="2.5"/><path d="M 210 188 Q 240 224 270 188" fill="none" stroke="#4A90C2" stroke-width="2.5"/><path d="M 186 188 L 186 206" stroke="#4A90C2" stroke-width="2" stroke-opacity=".6"/><path d="M 216 188 L 216 206" stroke="#4A90C2" stroke-width="2" stroke-opacity=".6"/><path d="M 246 188 L 246 206" stroke="#4A90C2" stroke-width="2" stroke-opacity=".6"/><path d="M 276 188 L 276 206" stroke="#4A90C2" stroke-width="2" stroke-opacity=".6"/>
<g fill="#4A90C2"><rect x="446" y="272" width="8" height="8"/><rect x="454" y="264" width="8" height="8"/><rect x="462" y="256" width="8" height="8"/></g>
</svg>
