<svg xmlns="http://www.w3.org/2000/svg" viewBox="0 0 480 300">
<!-- tkLeen 이론 사전 커버 · 플랫 카툰 v1 — 양식보험: 양식장(물·물고기) 위험을 보장하는 우산 -->
<defs>
<pattern id="dots" width="28" height="28" patternUnits="userSpaceOnUse"><circle cx="14" cy="14" r="1.3" fill="#171A20" fill-opacity=".05"/></pattern>
</defs>
<rect width="480" height="300" fill="#FAFAF7"/>
<rect width="480" height="300" fill="url(#dots)"/>
<!-- 물(양식장) -->
<path d="M 96 196 q 24 -16 48 0 t 48 0 t 48 0 t 48 0 t 48 0" fill="none" stroke="#4A90C2" stroke-width="4" stroke-linecap="round"/>
<path d="M 96 214 q 24 -16 48 0 t 48 0 t 48 0 t 48 0 t 48 0" fill="none" stroke="#4A90C2" stroke-width="3" stroke-opacity=".5" stroke-linecap="round"/>
<!-- 물고기 -->
<g transform="translate(200 196)"><path d="M -14 0 Q 0 -10 14 0 Q 0 10 -14 0 Z" fill="#EAF2F9" stroke="#171A20" stroke-width="2.5"/><path d="M 14 0 l 10 -6 l 0 12 z" fill="#EAF2F9" stroke="#171A20" stroke-width="2.5"/><circle cx="-6" cy="-1" r="1.6" fill="#171A20"/></g>
<g transform="translate(280 208) scale(.8)"><path d="M -14 0 Q 0 -10 14 0 Q 0 10 -14 0 Z" fill="#EAF2F9" stroke="#171A20" stroke-width="2.5"/><path d="M 14 0 l 10 -6 l 0 12 z" fill="#EAF2F9" stroke="#171A20" stroke-width="2.5"/><circle cx="-6" cy="-1" r="1.6" fill="#171A20"/></g>
<!-- 우산(보장) -->
<line x1="240" y1="96" x2="240" y2="150" stroke="#171A20" stroke-width="3" stroke-linecap="round"/>
<path d="M 196 116 Q 240 80 284 116 Z" fill="#4A90C2" stroke="#171A20" stroke-width="3" stroke-linejoin="round"/>
<g fill="#4A90C2"><rect x="446" y="272" width="8" height="8"/><rect x="454" y="264" width="8" height="8"/><rect x="462" y="256" width="8" height="8"/></g>
</svg>
