<svg xmlns="http://www.w3.org/2000/svg" viewBox="0 0 480 300">
<!-- tkLeen 이론 사전 커버 · 플랫 카툰 v1 — 여행보험: 여행가방·비행경로로 묶인 단기 패키지 보장 -->
<defs><pattern id="dots" width="28" height="28" patternUnits="userSpaceOnUse"><circle cx="14" cy="14" r="1.3" fill="#171A20" fill-opacity=".05"/></pattern></defs>
<rect width="480" height="300" fill="#FAFAF7"/>
<rect width="480" height="300" fill="url(#dots)"/>
<rect x="160" y="150" width="74" height="66" rx="8" fill="#4A90C2" stroke="#171A20" stroke-width="3"/><path d="M 182 150 L 182 134 Q 182 126 197 126 Q 212 126 212 134 L 212 150" fill="none" stroke="#171A20" stroke-width="3"/><path d="M 160 176 L 234 176" stroke="#171A20" stroke-width="2.5" stroke-opacity=".5"/><circle cx="320" cy="120" r="30" fill="#EAF2F9" stroke="#171A20" stroke-width="3"/><path d="M 300 110 q 14 8 0 18 M 322 102 q -10 18 8 32" fill="none" stroke="#4A90C2" stroke-width="2.5"/><path d="M 252 200 Q 300 150 348 150" fill="none" stroke="#171A20" stroke-width="2.5" stroke-dasharray="4 5"/><path d="M 348 150 l -12 -3 l 5 11 Z" fill="#4A90C2"/><g transform="translate(206 108) scale(1.0)"><circle r="13" fill="#FFFFFF" stroke="#171A20" stroke-width="3"/><circle cx="-4.5" cy="-2" r="1.8" fill="#171A20"/><circle cx="4.5" cy="-2" r="1.8" fill="#171A20"/><path d="M -5 4 Q 0 8.5 5 4" fill="none" stroke="#171A20" stroke-width="2.2" stroke-linecap="round"/></g>
<g fill="#4A90C2"><rect x="446" y="272" width="8" height="8"/><rect x="454" y="264" width="8" height="8"/><rect x="462" y="256" width="8" height="8"/></g>
</svg>
