<svg xmlns="http://www.w3.org/2000/svg" viewBox="0 0 480 300">
<!-- tkLeen 이론 사전 커버 · 플랫 카툰 v1 — 영업용 자동차보험: 영업용 트럭(사업용 차량)을 보장 -->
<defs>
<pattern id="dots" width="28" height="28" patternUnits="userSpaceOnUse"><circle cx="14" cy="14" r="1.3" fill="#171A20" fill-opacity=".05"/></pattern>
</defs>
<rect width="480" height="300" fill="#FAFAF7"/>
<rect width="480" height="300" fill="url(#dots)"/>
<line x1="84" y1="214" x2="396" y2="214" stroke="#171A20" stroke-width="3" stroke-linecap="round"/>
<!-- 트럭 짐칸 -->
<rect x="150" y="150" width="96" height="50" fill="#EAF2F9" stroke="#171A20" stroke-width="3"/>
<!-- 운전석 -->
<path d="M 246 166 L 290 166 L 304 188 L 304 200 L 246 200 Z" fill="#EAF2F9" stroke="#171A20" stroke-width="3" stroke-linejoin="round"/>
<rect x="252" y="172" width="22" height="16" fill="#FFFFFF" stroke="#171A20" stroke-width="2"/>
<circle cx="180" cy="214" r="14" fill="#171A20"/><circle cx="180" cy="214" r="5" fill="#FAFAF7"/>
<circle cx="284" cy="214" r="14" fill="#171A20"/><circle cx="284" cy="214" r="5" fill="#FAFAF7"/>
<!-- 보장 우산 -->
<line x1="220" y1="92" x2="220" y2="140" stroke="#171A20" stroke-width="3" stroke-linecap="round"/>
<path d="M 178 112 Q 220 78 262 112 Z" fill="#4A90C2" stroke="#171A20" stroke-width="3" stroke-linejoin="round"/>
<g fill="#4A90C2"><rect x="446" y="272" width="8" height="8"/><rect x="454" y="264" width="8" height="8"/><rect x="462" y="256" width="8" height="8"/></g>
</svg>
