<svg xmlns="http://www.w3.org/2000/svg" viewBox="0 0 480 300">
<!-- tkLeen 이론 사전 커버 · 플랫 카툰 v1 — 개인용 자동차보험: 자가용 한 대를 보장하는 우산 -->
<defs>
<pattern id="dots" width="28" height="28" patternUnits="userSpaceOnUse"><circle cx="14" cy="14" r="1.3" fill="#171A20" fill-opacity=".05"/></pattern>
</defs>
<rect width="480" height="300" fill="#FAFAF7"/>
<rect width="480" height="300" fill="url(#dots)"/>
<line x1="96" y1="214" x2="384" y2="214" stroke="#171A20" stroke-width="3" stroke-linecap="round"/>
<!-- 승용차 -->
<path d="M 168 196 L 180 162 Q 184 152 196 152 L 268 152 Q 280 152 286 162 L 300 196 Z" fill="#EAF2F9" stroke="#171A20" stroke-width="3" stroke-linejoin="round"/>
<path d="M 196 158 L 270 158 L 280 186 L 188 186 Z" fill="#FFFFFF" stroke="#171A20" stroke-width="2"/>
<rect x="168" y="190" width="132" height="16" rx="6" fill="#EAF2F9" stroke="#171A20" stroke-width="3"/>
<circle cx="196" cy="214" r="14" fill="#171A20"/><circle cx="196" cy="214" r="5" fill="#FAFAF7"/>
<circle cx="272" cy="214" r="14" fill="#171A20"/><circle cx="272" cy="214" r="5" fill="#FAFAF7"/>
<!-- 보장 우산 -->
<line x1="234" y1="92" x2="234" y2="140" stroke="#171A20" stroke-width="3" stroke-linecap="round"/>
<path d="M 192 112 Q 234 78 276 112 Z" fill="#4A90C2" stroke="#171A20" stroke-width="3" stroke-linejoin="round"/>
<g fill="#4A90C2"><rect x="446" y="272" width="8" height="8"/><rect x="454" y="264" width="8" height="8"/><rect x="462" y="256" width="8" height="8"/></g>
</svg>
