<svg xmlns="http://www.w3.org/2000/svg" viewBox="0 0 480 300">
<!-- tkLeen 이론 사전 커버 · 플랫 카툰 v1 — 종결클레임: 지급·합의로 처리 완료(체크)된 클레임 파일 -->
<defs><pattern id="dots" width="28" height="28" patternUnits="userSpaceOnUse"><circle cx="14" cy="14" r="1.3" fill="#171A20" fill-opacity=".05"/></pattern></defs>
<rect width="480" height="300" fill="#FAFAF7"/>
<rect width="480" height="300" fill="url(#dots)"/>
<path d="M 180 108 L 238 108 L 256 126 L 256 204 L 180 204 Z" fill="#FFFFFF" stroke="#171A20" stroke-width="3" stroke-linejoin="round"/><path d="M 238 108 L 256 126 L 238 126 Z" fill="#EAF2F9" stroke="#171A20" stroke-width="2.5" stroke-linejoin="round"/><path d="M 192 138 L 242 138" stroke="#171A20" stroke-width="2" stroke-opacity=".4" stroke-linecap="round"/><path d="M 192 152 L 242 152" stroke="#171A20" stroke-width="2" stroke-opacity=".4" stroke-linecap="round"/><path d="M 192 166 L 242 166" stroke="#171A20" stroke-width="2" stroke-opacity=".4" stroke-linecap="round"/><g transform="translate(218 158)"><circle r="20" fill="#EAF2F9" stroke="#171A20" stroke-width="3"/><path d="M -9 1 L -2 9 L 12 -9" fill="none" stroke="#4A90C2" stroke-width="4" stroke-linecap="round" stroke-linejoin="round"/></g><text x="218" y="224" font-family="ui-monospace,Consolas,monospace" font-size="12" fill="#171A20" fill-opacity=".55" text-anchor="middle">closed</text><g transform="translate(330 150) scale(1.0)"><circle r="13" fill="#FFFFFF" stroke="#171A20" stroke-width="3"/><circle cx="-4.5" cy="-2" r="1.8" fill="#171A20"/><circle cx="4.5" cy="-2" r="1.8" fill="#171A20"/><path d="M -5 4 Q 0 8.5 5 4" fill="none" stroke="#171A20" stroke-width="2.2" stroke-linecap="round"/></g>
<g fill="#4A90C2"><rect x="446" y="272" width="8" height="8"/><rect x="454" y="264" width="8" height="8"/><rect x="462" y="256" width="8" height="8"/></g>
</svg>
