<svg xmlns="http://www.w3.org/2000/svg" viewBox="0 0 480 300">
<!-- tkLeen 이론 사전 커버 · 플랫 카툰 v1 — 주택종합보험: 집과 거주자 책임을 함께 덮는 우산(패키지) -->
<defs><pattern id="dots" width="28" height="28" patternUnits="userSpaceOnUse"><circle cx="14" cy="14" r="1.3" fill="#171A20" fill-opacity=".05"/></pattern></defs>
<rect width="480" height="300" fill="#FAFAF7"/>
<rect width="480" height="300" fill="url(#dots)"/>
<path d="M 175 210 L 175 158 L 230 118 L 285 158 L 285 210 Z" fill="#FFFFFF" stroke="#171A20" stroke-width="3" stroke-linejoin="round"/><path d="M 230 118 L 230 100" stroke="#171A20" stroke-width="3" stroke-linecap="round"/><rect x="214" y="178" width="32" height="32" fill="#EAF2F9" stroke="#171A20" stroke-width="2.5"/><g transform="translate(230 86) scale(0.95)"><path d="M -56 0 Q 0 -60 56 0 Q 28 -13 0 0 Q -28 -13 -56 0 Z" fill="#4A90C2" stroke="#171A20" stroke-width="3" stroke-linejoin="round"/><path d="M 0 0 L 0 44 Q 0 54 11 54" fill="none" stroke="#171A20" stroke-width="3" stroke-linecap="round"/></g><g transform="translate(330 176) scale(1.0)"><circle r="13" fill="#FFFFFF" stroke="#171A20" stroke-width="3"/><circle cx="-4.5" cy="-2" r="1.8" fill="#171A20"/><circle cx="4.5" cy="-2" r="1.8" fill="#171A20"/><path d="M -5 4 Q 0 8.5 5 4" fill="none" stroke="#171A20" stroke-width="2.2" stroke-linecap="round"/></g>
<g fill="#4A90C2"><rect x="446" y="272" width="8" height="8"/><rect x="454" y="264" width="8" height="8"/><rect x="462" y="256" width="8" height="8"/></g>
</svg>
