<svg xmlns="http://www.w3.org/2000/svg" viewBox="0 0 480 300">
<!-- tkLeen 이론 사전 커버 · 플랫 카툰 v1 — 칼만필터준비금산정법: 잡음 섞인 관측점을 통과하는 매끄러운 칼만 추정선 -->
<defs><pattern id="dots" width="28" height="28" patternUnits="userSpaceOnUse"><circle cx="14" cy="14" r="1.3" fill="#171A20" fill-opacity=".05"/></pattern></defs>
<rect width="480" height="300" fill="#FAFAF7"/>
<rect width="480" height="300" fill="url(#dots)"/>
<path d="M 150 60 L 150 210 L 360 210" fill="none" stroke="#171A20" stroke-width="3" stroke-linecap="round" stroke-linejoin="round"/><path d="M 152 195 Q 230 150 360 100" fill="none" stroke="#4A90C2" stroke-width="5" stroke-linecap="round"/><circle cx="170" cy="186" r="3.4" fill="#171A20" fill-opacity=".6"/><circle cx="200" cy="172" r="3.4" fill="#171A20" fill-opacity=".6"/><circle cx="232" cy="165" r="3.4" fill="#171A20" fill-opacity=".6"/><circle cx="262" cy="138" r="3.4" fill="#171A20" fill-opacity=".6"/><circle cx="292" cy="132" r="3.4" fill="#171A20" fill-opacity=".6"/><circle cx="322" cy="108" r="3.4" fill="#171A20" fill-opacity=".6"/><circle cx="348" cy="112" r="3.4" fill="#171A20" fill-opacity=".6"/><text x="132" y="150" font-family="ui-monospace,Consolas,monospace" font-size="12" fill="#171A20" fill-opacity=".55" text-anchor="end">x̂</text><text x="300" y="205" font-family="ui-monospace,Consolas,monospace" font-size="12" fill="#171A20" fill-opacity=".55" text-anchor="start">t</text><g transform="translate(300 80) scale(1.0)"><circle r="13" fill="#FFFFFF" stroke="#171A20" stroke-width="3"/><circle cx="-4.5" cy="-2" r="1.8" fill="#171A20"/><circle cx="4.5" cy="-2" r="1.8" fill="#171A20"/><path d="M -5 4 Q 0 8.5 5 4" fill="none" stroke="#171A20" stroke-width="2.2" stroke-linecap="round"/></g>
<g fill="#4A90C2"><rect x="446" y="272" width="8" height="8"/><rect x="454" y="264" width="8" height="8"/><rect x="462" y="256" width="8" height="8"/></g>
</svg>
