<svg xmlns="http://www.w3.org/2000/svg" viewBox="0 0 480 300">
<!-- tkLeen 이론 사전 커버 · 플랫 카툰 v1 — 합산비율: 손해율+사업비율 누적 막대가 100% 손익분기선에 닿음 -->
<defs><pattern id="dots" width="28" height="28" patternUnits="userSpaceOnUse"><circle cx="14" cy="14" r="1.3" fill="#171A20" fill-opacity=".05"/></pattern></defs>
<rect width="480" height="300" fill="#FAFAF7"/>
<rect width="480" height="300" fill="url(#dots)"/>
<rect x="170" y="120" width="70" height="100" fill="#4A90C2" stroke="#171A20" stroke-width="3"/><rect x="170" y="78" width="70" height="42" fill="#EAF2F9" stroke="#171A20" stroke-width="3"/><path d="M 150 78 L 360 78" stroke="#171A20" stroke-width="2.5" stroke-dasharray="6 5" stroke-linecap="round"/><text x="366" y="82" font-family="ui-monospace,Consolas,monospace" font-size="12" fill="#171A20" fill-opacity=".55" text-anchor="start">100%</text><text x="205" y="178" font-family="ui-monospace,Consolas,monospace" font-size="13" fill="#171A20" fill-opacity=".85" text-anchor="middle">L</text><text x="205" y="104" font-family="ui-monospace,Consolas,monospace" font-size="13" fill="#171A20" fill-opacity=".55" text-anchor="middle">E</text><g transform="translate(320 150) scale(1.0)"><circle r="13" fill="#FFFFFF" stroke="#171A20" stroke-width="3"/><circle cx="-4.5" cy="-2" r="1.8" fill="#171A20"/><circle cx="4.5" cy="-2" r="1.8" fill="#171A20"/><path d="M -5 6 Q 0 2 5 6" fill="none" stroke="#171A20" stroke-width="2.2" stroke-linecap="round"/><path d="M 12 -10 q 3 4 0 6 q -3 -2 0 -6" fill="#4A90C2"/></g>
<g fill="#4A90C2"><rect x="446" y="272" width="8" height="8"/><rect x="454" y="264" width="8" height="8"/><rect x="462" y="256" width="8" height="8"/></g>
</svg>
