<svg xmlns="http://www.w3.org/2000/svg" viewBox="0 0 480 300">
<!-- tkLeen 이론 사전 커버 · 플랫 카툰 v1 — 항공보험: 항공기(기체·배상책임)를 보장하는 우산 -->
<defs>
<pattern id="dots" width="28" height="28" patternUnits="userSpaceOnUse"><circle cx="14" cy="14" r="1.3" fill="#171A20" fill-opacity=".05"/></pattern>
</defs>
<rect width="480" height="300" fill="#FAFAF7"/>
<rect width="480" height="300" fill="url(#dots)"/>
<!-- 비행기(Sky 동체) -->
<g transform="translate(240 168) rotate(-18)">
<ellipse cx="0" cy="0" rx="70" ry="18" fill="#EAF2F9" stroke="#171A20" stroke-width="3"/>
<path d="M -10 -2 L 20 -40 L 34 -38 L 14 -2 Z" fill="#4A90C2" stroke="#171A20" stroke-width="2.5" stroke-linejoin="round"/>
<path d="M -10 2 L 20 40 L 34 38 L 14 2 Z" fill="#EAF2F9" stroke="#171A20" stroke-width="2.5" stroke-linejoin="round"/>
<path d="M -64 0 L -84 -16 L -76 0 L -84 16 Z" fill="#4A90C2" stroke="#171A20" stroke-width="2.5" stroke-linejoin="round"/>
<g fill="#171A20"><circle cx="20" cy="-1" r="3"/><circle cx="36" cy="-1" r="3"/><circle cx="52" cy="-1" r="3"/></g>
</g>
<!-- 보장 우산 -->
<line x1="316" y1="96" x2="316" y2="144" stroke="#171A20" stroke-width="3" stroke-linecap="round"/>
<path d="M 282 116 Q 316 86 350 116 Z" fill="#4A90C2" stroke="#171A20" stroke-width="3" stroke-linejoin="round"/>
<g fill="#4A90C2"><rect x="446" y="272" width="8" height="8"/><rect x="454" y="264" width="8" height="8"/><rect x="462" y="256" width="8" height="8"/></g>
</svg>
