<svg xmlns="http://www.w3.org/2000/svg" viewBox="0 0 480 300">
<!-- tkLeen 이론 사전 커버 · 플랫 카툰 v1 — 해상보험: 파도 위를 항해하는 선박(해상보험의 기원) -->
<defs><pattern id="dots" width="28" height="28" patternUnits="userSpaceOnUse"><circle cx="14" cy="14" r="1.3" fill="#171A20" fill-opacity=".05"/></pattern></defs>
<rect width="480" height="300" fill="#FAFAF7"/>
<rect width="480" height="300" fill="url(#dots)"/>
<path d="M 110 200 Q 150 188 190 200 T 270 200 T 350 200 T 410 200" fill="none" stroke="#4A90C2" stroke-width="4" stroke-linecap="round"/><path d="M 110 218 Q 150 206 190 218 T 270 218 T 350 218 T 410 218" fill="none" stroke="#4A90C2" stroke-width="3" stroke-opacity=".55" stroke-linecap="round"/><path d="M 188 192 L 312 192 L 296 218 L 204 218 Z" fill="#FFFFFF" stroke="#171A20" stroke-width="3" stroke-linejoin="round"/><path d="M 250 192 L 250 110" stroke="#171A20" stroke-width="3" stroke-linecap="round"/><path d="M 250 116 L 306 168 L 250 168 Z" fill="#EAF2F9" stroke="#171A20" stroke-width="2.5" stroke-linejoin="round"/><path d="M 250 122 L 200 168 L 250 168 Z" fill="#4A90C2" stroke="#171A20" stroke-width="2.5" stroke-linejoin="round"/><g transform="translate(250 84) scale(1.0)"><circle r="13" fill="#FFFFFF" stroke="#171A20" stroke-width="3"/><circle cx="-4.5" cy="-2" r="1.8" fill="#171A20"/><circle cx="4.5" cy="-2" r="1.8" fill="#171A20"/><path d="M -5 4 Q 0 8.5 5 4" fill="none" stroke="#171A20" stroke-width="2.2" stroke-linecap="round"/></g>
<g fill="#4A90C2"><rect x="446" y="272" width="8" height="8"/><rect x="454" y="264" width="8" height="8"/><rect x="462" y="256" width="8" height="8"/></g>
</svg>
