<svg xmlns="http://www.w3.org/2000/svg" viewBox="0 0 480 300">
<!-- tkLeen 이론 사전 커버 · 플랫 카툰 v1 — 홍수위험: 수위가 차오르는 물에 잠긴 집 -->
<defs><pattern id="dots" width="28" height="28" patternUnits="userSpaceOnUse"><circle cx="14" cy="14" r="1.3" fill="#171A20" fill-opacity=".05"/></pattern></defs>
<rect width="480" height="300" fill="#FAFAF7"/>
<rect width="480" height="300" fill="url(#dots)"/>
<path d="M 165 200 L 165 150 L 218 112 L 271 150 L 271 200 Z" fill="#FFFFFF" stroke="#171A20" stroke-width="3" stroke-linejoin="round"/><rect x="202" y="166" width="30" height="34" fill="#EAF2F9" stroke="#171A20" stroke-width="2"/><path d="M 120 178 Q 160 168 200 178 T 280 178 T 360 178 L 360 230 L 120 230 Z" fill="#4A90C2" fill-opacity=".30" stroke="none"/><path d="M 120 178 Q 160 168 200 178 T 280 178 T 360 178" fill="none" stroke="#4A90C2" stroke-width="4" stroke-linecap="round"/><g transform="translate(218 86) scale(1.0)"><circle r="13" fill="#FFFFFF" stroke="#171A20" stroke-width="3"/><circle cx="-4.5" cy="-2" r="1.8" fill="#171A20"/><circle cx="4.5" cy="-2" r="1.8" fill="#171A20"/><path d="M -5 6 Q 0 2 5 6" fill="none" stroke="#171A20" stroke-width="2.2" stroke-linecap="round"/></g>
<g fill="#4A90C2"><rect x="446" y="272" width="8" height="8"/><rect x="454" y="264" width="8" height="8"/><rect x="462" y="256" width="8" height="8"/></g>
</svg>
