<svg xmlns="http://www.w3.org/2000/svg" viewBox="0 0 480 300">
<!-- tkLeen 이론 사전 커버 · 플랫 카툰 v1 — 화재보험: 불꽃 위험으로부터 건물을 지키는 방패 -->
<defs><pattern id="dots" width="28" height="28" patternUnits="userSpaceOnUse"><circle cx="14" cy="14" r="1.3" fill="#171A20" fill-opacity=".05"/></pattern></defs>
<rect width="480" height="300" fill="#FAFAF7"/>
<rect width="480" height="300" fill="url(#dots)"/>
<rect x="150" y="130" width="90" height="94" fill="#FFFFFF" stroke="#171A20" stroke-width="3"/><rect x="166" y="146" width="14" height="14" fill="#EAF2F9" stroke="#171A20" stroke-width="2"/><rect x="166" y="170" width="14" height="14" fill="#EAF2F9" stroke="#171A20" stroke-width="2"/><rect x="166" y="194" width="14" height="14" fill="#EAF2F9" stroke="#171A20" stroke-width="2"/><rect x="188" y="146" width="14" height="14" fill="#EAF2F9" stroke="#171A20" stroke-width="2"/><rect x="188" y="170" width="14" height="14" fill="#EAF2F9" stroke="#171A20" stroke-width="2"/><rect x="188" y="194" width="14" height="14" fill="#EAF2F9" stroke="#171A20" stroke-width="2"/><rect x="210" y="146" width="14" height="14" fill="#EAF2F9" stroke="#171A20" stroke-width="2"/><rect x="210" y="170" width="14" height="14" fill="#EAF2F9" stroke="#171A20" stroke-width="2"/><rect x="210" y="194" width="14" height="14" fill="#EAF2F9" stroke="#171A20" stroke-width="2"/><path d="M 144 130 L 195 108 L 246 130 Z" fill="#4A90C2" stroke="#171A20" stroke-width="3" stroke-linejoin="round"/><path d="M 270 200 q -16 -10 -6 -30 q 6 10 14 6 q -4 16 10 24 q 4 -8 0 -16 q 14 12 4 30 Z" fill="#FFFFFF" stroke="#171A20" stroke-width="3" stroke-linejoin="round"/><g transform="translate(330 160) scale(1.05)"><path d="M 0 -28 L 24 -18 L 24 6 Q 24 26 0 36 Q -24 26 -24 6 L -24 -18 Z" fill="#EAF2F9" stroke="#171A20" stroke-width="3" stroke-linejoin="round"/><path d="M -10 1 L -2 10 L 13 -10" fill="none" stroke="#4A90C2" stroke-width="4" stroke-linecap="round" stroke-linejoin="round"/></g>
<g fill="#4A90C2"><rect x="446" y="272" width="8" height="8"/><rect x="454" y="264" width="8" height="8"/><rect x="462" y="256" width="8" height="8"/></g>
</svg>
