<svg xmlns="http://www.w3.org/2000/svg" viewBox="0 0 480 300">
<!-- tkLeen 이론 사전 커버 · 플랫 카툰 v1 — 금리기간구조 아핀모형: 만기별 금리를 잇는 수익률곡선 -->
<defs>
<pattern id="dots" width="28" height="28" patternUnits="userSpaceOnUse"><circle cx="14" cy="14" r="1.3" fill="#171A20" fill-opacity=".05"/></pattern>
</defs>
<rect width="480" height="300" fill="#FAFAF7"/>
<rect width="480" height="300" fill="url(#dots)"/>
<line x1="72" y1="232" x2="408" y2="232" stroke="#171A20" stroke-width="3" stroke-linecap="round"/>
<line x1="72" y1="232" x2="72" y2="70" stroke="#171A20" stroke-width="3" stroke-linecap="round"/>
<path d="M 72 232 L 408 88" fill="none" stroke="#EAF2F9" stroke-width="0"/>
<path d="M 84 196 Q 200 96 384 84" fill="none" stroke="#4A90C2" stroke-width="5" stroke-linecap="round"/>
<g fill="#171A20"><circle cx="84" cy="196" r="3.5"/><circle cx="168" cy="128" r="3.5"/><circle cx="264" cy="98" r="3.5"/><circle cx="384" cy="84" r="3.5"/></g>
<text x="392" y="78" font-family="ui-monospace,Consolas,monospace" font-size="12" fill="#4A90C2">r(t)</text>
<text x="396" y="250" text-anchor="end" font-family="ui-monospace,Consolas,monospace" font-size="12" fill="#171A20" fill-opacity=".55">만기 t</text>
<g transform="translate(110 178)"><circle r="13" fill="#FFFFFF" stroke="#171A20" stroke-width="3"/><circle cx="-4.5" cy="-2" r="1.8" fill="#171A20"/><circle cx="4.5" cy="-2" r="1.8" fill="#171A20"/><path d="M -5 4 Q 0 8.5 5 4" fill="none" stroke="#171A20" stroke-width="2.2" stroke-linecap="round"/></g>
<g fill="#4A90C2"><rect x="446" y="272" width="8" height="8"/><rect x="454" y="264" width="8" height="8"/><rect x="462" y="256" width="8" height="8"/></g>
</svg>
