<svg xmlns="http://www.w3.org/2000/svg" viewBox="0 0 480 300">
<!-- tkLeen 이론 사전 커버 · 플랫 카툰 v1 — 자산운용: 자산배분 원형(채권·주식·대체)과 운용자 -->
<defs>
<pattern id="dots" width="28" height="28" patternUnits="userSpaceOnUse"><circle cx="14" cy="14" r="1.3" fill="#171A20" fill-opacity=".05"/></pattern>
</defs>
<rect width="480" height="300" fill="#FAFAF7"/>
<rect width="480" height="300" fill="url(#dots)"/>
<!-- 배분 원형 차트 -->
<circle cx="208" cy="150" r="74" fill="#FFFFFF" stroke="#171A20" stroke-width="3"/>
<!-- 큰 슬라이스(채권, Sky) -->
<path d="M 208 150 L 208 76 A 74 74 0 0 1 282 150 Z" fill="#4A90C2"/>
<!-- 슬라이스(주식, 파스텔) -->
<path d="M 208 150 L 282 150 A 74 74 0 0 1 170 214 Z" fill="#EAF2F9"/>
<!-- 구분선 -->
<line x1="208" y1="150" x2="208" y2="76" stroke="#171A20" stroke-width="2.5"/>
<line x1="208" y1="150" x2="282" y2="150" stroke="#171A20" stroke-width="2.5"/>
<line x1="208" y1="150" x2="170" y2="214" stroke="#171A20" stroke-width="2.5"/>
<text x="300" y="120" font-family="ui-monospace,Consolas,monospace" font-size="12" fill="#171A20" fill-opacity=".55">채권</text>
<text x="300" y="186" font-family="ui-monospace,Consolas,monospace" font-size="12" fill="#171A20" fill-opacity=".55">주식·대체</text>
<g transform="translate(348 150)"><circle r="13" fill="#FFFFFF" stroke="#171A20" stroke-width="3"/><circle cx="-4.5" cy="-2" r="1.8" fill="#171A20"/><circle cx="4.5" cy="-2" r="1.8" fill="#171A20"/><path d="M -5 3 Q 0 9.5 5 3 Z" fill="#171A20" stroke="#171A20" stroke-width="2.2" stroke-linejoin="round"/></g>
<g fill="#4A90C2"><rect x="446" y="272" width="8" height="8"/><rect x="454" y="264" width="8" height="8"/><rect x="462" y="256" width="8" height="8"/></g>
</svg>
