<svg xmlns="http://www.w3.org/2000/svg" viewBox="0 0 480 300">
<!-- tkLeen 이론 사전 커버 · 플랫 카툰 v1 — 집합투자: 여러 투자자의 자금을 모아 하나의 펀드로 -->
<defs>
<pattern id="dots" width="28" height="28" patternUnits="userSpaceOnUse"><circle cx="14" cy="14" r="1.3" fill="#171A20" fill-opacity=".05"/></pattern>
</defs>
<rect width="480" height="300" fill="#FAFAF7"/>
<rect width="480" height="300" fill="url(#dots)"/>
<!-- 펀드 바구니 -->
<path d="M 176 168 L 304 168 L 290 226 L 190 226 Z" fill="#EAF2F9" stroke="#171A20" stroke-width="3" stroke-linejoin="round"/>
<line x1="186" y1="186" x2="294" y2="186" stroke="#4A90C2" stroke-width="4" stroke-linecap="round"/>
<text x="240" y="214" text-anchor="middle" font-family="ui-monospace,Consolas,monospace" font-size="12" fill="#171A20" fill-opacity=".55">fund</text>
<!-- 모여드는 동전 화살표 -->
<path d="M 150 96 L 206 156" fill="none" stroke="#171A20" stroke-width="2.2" stroke-linecap="round"/>
<path d="M 240 86 L 240 156" fill="none" stroke="#171A20" stroke-width="2.2" stroke-linecap="round"/>
<path d="M 330 96 L 274 156" fill="none" stroke="#171A20" stroke-width="2.2" stroke-linecap="round"/>
<g fill="#4A90C2"><circle cx="150" cy="92" r="6"/><circle cx="240" cy="82" r="6"/><circle cx="330" cy="92" r="6"/></g>
<!-- 투자자 -->
<g transform="translate(112 108)"><circle r="13" fill="#EEF4FF" stroke="#171A20" stroke-width="3"/><circle cx="-4.5" cy="-2" r="1.8" fill="#171A20"/><circle cx="4.5" cy="-2" r="1.8" fill="#171A20"/><path d="M -5 4 Q 0 8.5 5 4" fill="none" stroke="#171A20" stroke-width="2.2" stroke-linecap="round"/></g>
<g transform="translate(368 108)"><circle r="13" fill="#FFF7ED" stroke="#171A20" stroke-width="3"/><circle cx="-4.5" cy="-2" r="1.8" fill="#171A20"/><circle cx="4.5" cy="-2" r="1.8" fill="#171A20"/><path d="M -5 4 Q 0 8.5 5 4" fill="none" stroke="#171A20" stroke-width="2.2" stroke-linecap="round"/></g>
<g fill="#4A90C2"><rect x="446" y="272" width="8" height="8"/><rect x="454" y="264" width="8" height="8"/><rect x="462" y="256" width="8" height="8"/></g>
</svg>
