<svg xmlns="http://www.w3.org/2000/svg" viewBox="0 0 480 300">
<!-- tkLeen 이론 사전 커버 · 플랫 카툰 v1 — 파생상품 가격결정 수치해법: 이항격자 트리 위의 옵션가치 역산 -->
<defs>
<pattern id="dots" width="28" height="28" patternUnits="userSpaceOnUse"><circle cx="14" cy="14" r="1.3" fill="#171A20" fill-opacity=".05"/></pattern>
</defs>
<rect width="480" height="300" fill="#FAFAF7"/>
<rect width="480" height="300" fill="url(#dots)"/>
<!-- 이항격자 트리 (3단계) -->
<line x1="80" y1="150" x2="160" y2="100" stroke="#171A20" stroke-width="2.5" stroke-linecap="round"/>
<line x1="80" y1="150" x2="160" y2="200" stroke="#171A20" stroke-width="2.5" stroke-linecap="round"/>
<line x1="160" y1="100" x2="240" y2="64" stroke="#4A90C2" stroke-width="5" stroke-linecap="round"/>
<line x1="160" y1="100" x2="240" y2="140" stroke="#171A20" stroke-width="2.5" stroke-linecap="round"/>
<line x1="160" y1="200" x2="240" y2="140" stroke="#171A20" stroke-width="2.5" stroke-linecap="round"/>
<line x1="160" y1="200" x2="240" y2="236" stroke="#171A20" stroke-width="2.5" stroke-linecap="round"/>
<line x1="240" y1="64" x2="360" y2="48" stroke="#4A90C2" stroke-width="5" stroke-linecap="round"/>
<line x1="240" y1="64" x2="360" y2="120" stroke="#171A20" stroke-width="2.5" stroke-linecap="round"/>
<line x1="240" y1="140" x2="360" y2="120" stroke="#171A20" stroke-width="2.5" stroke-linecap="round"/>
<line x1="240" y1="140" x2="360" y2="184" stroke="#171A20" stroke-width="2.5" stroke-linecap="round"/>
<line x1="240" y1="236" x2="360" y2="184" stroke="#171A20" stroke-width="2.5" stroke-linecap="round"/>
<line x1="240" y1="236" x2="360" y2="248" stroke="#171A20" stroke-width="2.5" stroke-linecap="round"/>
<!-- 노드 원 -->
<circle cx="80" cy="150" r="8" fill="#FAFAF7" stroke="#171A20" stroke-width="2.5"/>
<circle cx="160" cy="100" r="8" fill="#FAFAF7" stroke="#171A20" stroke-width="2.5"/>
<circle cx="160" cy="200" r="8" fill="#FAFAF7" stroke="#171A20" stroke-width="2.5"/>
<circle cx="240" cy="64" r="8" fill="#EAF2F9" stroke="#4A90C2" stroke-width="2.5"/>
<circle cx="240" cy="140" r="8" fill="#FAFAF7" stroke="#171A20" stroke-width="2.5"/>
<circle cx="240" cy="236" r="8" fill="#FAFAF7" stroke="#171A20" stroke-width="2.5"/>
<circle cx="360" cy="48" r="8" fill="#EAF2F9" stroke="#4A90C2" stroke-width="2.5"/>
<circle cx="360" cy="120" r="8" fill="#FAFAF7" stroke="#171A20" stroke-width="2.5"/>
<circle cx="360" cy="184" r="8" fill="#FAFAF7" stroke="#171A20" stroke-width="2.5"/>
<circle cx="360" cy="248" r="8" fill="#FAFAF7" stroke="#171A20" stroke-width="2.5"/>
<!-- 수식 라벨 -->
<text x="372" y="52" font-family="ui-monospace,Consolas,monospace" font-size="12" fill="#4A90C2">V_uu</text>
<text x="372" y="188" font-family="ui-monospace,Consolas,monospace" font-size="12" fill="#171A20" fill-opacity=".55">V_ud</text>
<text x="372" y="252" font-family="ui-monospace,Consolas,monospace" font-size="12" fill="#171A20" fill-opacity=".55">V_dd</text>
<!-- 역산 방향 화살표 -->
<line x1="342" y1="48" x2="256" y2="68" stroke="#4A90C2" stroke-width="2" stroke-dasharray="4 3" stroke-linecap="round"/>
<text x="270" y="55" font-family="ui-monospace,Consolas,monospace" font-size="11" fill="#4A90C2">←Q</text>
<!-- 캐릭터 -->
<g transform="translate(410 150)"><circle r="13" fill="#FFFFFF" stroke="#171A20" stroke-width="3"/><circle cx="-4.5" cy="-2" r="1.8" fill="#171A20"/><circle cx="4.5" cy="-2" r="1.8" fill="#171A20"/><path d="M -5 4 Q 0 8.5 5 4" fill="none" stroke="#171A20" stroke-width="2.2" stroke-linecap="round"/></g>
<g fill="#4A90C2"><rect x="446" y="272" width="8" height="8"/><rect x="454" y="264" width="8" height="8"/><rect x="462" y="256" width="8" height="8"/></g>
</svg>
