<svg xmlns="http://www.w3.org/2000/svg" viewBox="0 0 480 300">
<!-- tkLeen 이론 사전 커버 · 플랫 카툰 v1 — 경쟁위험: 한 상태에서 여러 원인으로 동시에 탈퇴 -->
<defs>
<pattern id="dots" width="28" height="28" patternUnits="userSpaceOnUse"><circle cx="14" cy="14" r="1.3" fill="#171A20" fill-opacity=".05"/></pattern>
</defs>
<rect width="480" height="300" fill="#FAFAF7"/>
<rect width="480" height="300" fill="url(#dots)"/>
<!-- 중앙 상태(생존) -->
<g transform="translate(160 150)"><circle r="15" fill="#FFFFFF" stroke="#171A20" stroke-width="3"/><circle cx="-5" cy="-2" r="2" fill="#171A20"/><circle cx="5" cy="-2" r="2" fill="#171A20"/><path d="M -5 4 Q 0 8.5 5 4" fill="none" stroke="#171A20" stroke-width="2.2" stroke-linecap="round"/></g>
<!-- 세 갈래 탈퇴 화살표 -->
<path d="M 184 132 L 300 96" stroke="#4A90C2" stroke-width="5" stroke-linecap="round"/>
<path d="M 186 150 L 312 150" stroke="#171A20" stroke-width="3" stroke-linecap="round"/>
<path d="M 184 168 L 300 206" stroke="#171A20" stroke-width="3" stroke-linecap="round"/>
<g fill="#EAF2F9" stroke="#171A20" stroke-width="2.5"><rect x="306" y="82" width="56" height="28"/><rect x="318" y="136" width="56" height="28"/><rect x="306" y="192" width="56" height="28"/></g>
<text x="334" y="101" text-anchor="middle" font-family="ui-monospace,Consolas,monospace" font-size="10" fill="#171A20" fill-opacity=".55">사망</text>
<text x="346" y="155" text-anchor="middle" font-family="ui-monospace,Consolas,monospace" font-size="10" fill="#171A20" fill-opacity=".55">해지</text>
<text x="334" y="211" text-anchor="middle" font-family="ui-monospace,Consolas,monospace" font-size="10" fill="#171A20" fill-opacity=".55">장해</text>
<g fill="#4A90C2"><rect x="446" y="272" width="8" height="8"/><rect x="454" y="264" width="8" height="8"/><rect x="462" y="256" width="8" height="8"/></g>
</svg>
