<svg xmlns="http://www.w3.org/2000/svg" viewBox="0 0 480 300">
<!-- tkLeen 이론 사전 커버 · 플랫 카툰 v1 — 계산기수: Dx·Nx 등 미리 계산해 둔 계산기수 열 -->
<defs>
<pattern id="dots" width="28" height="28" patternUnits="userSpaceOnUse"><circle cx="14" cy="14" r="1.3" fill="#171A20" fill-opacity=".05"/></pattern>
</defs>
<rect width="480" height="300" fill="#FAFAF7"/>
<rect width="480" height="300" fill="url(#dots)"/>
<!-- 표 -->
<rect x="150" y="96" width="180" height="140" fill="#FFFFFF" stroke="#171A20" stroke-width="3"/>
<line x1="150" y1="124" x2="330" y2="124" stroke="#171A20" stroke-width="2.5"/>
<line x1="210" y1="96" x2="210" y2="236" stroke="#171A20" stroke-width="2.5"/>
<line x1="270" y1="96" x2="270" y2="236" stroke="#171A20" stroke-width="2.5"/>
<text x="180" y="116" text-anchor="middle" font-family="ui-monospace,Consolas,monospace" font-size="12" fill="#171A20" fill-opacity=".7">x</text>
<text x="240" y="116" text-anchor="middle" font-family="ui-monospace,Consolas,monospace" font-size="12" fill="#4A90C2">Dx</text>
<text x="300" y="116" text-anchor="middle" font-family="ui-monospace,Consolas,monospace" font-size="12" fill="#4A90C2">Nx</text>
<g font-family="ui-monospace,Consolas,monospace" font-size="11" fill="#171A20" fill-opacity=".45" text-anchor="middle">
<text x="180" y="146">40</text><text x="240" y="146">·</text><text x="300" y="146">·</text>
<text x="180" y="170">41</text><text x="240" y="170">·</text><text x="300" y="170">·</text>
<text x="180" y="194">42</text><text x="240" y="194">·</text><text x="300" y="194">·</text>
<text x="180" y="218">43</text><text x="240" y="218">·</text><text x="300" y="218">·</text>
</g>
<rect x="210" y="124" width="60" height="112" fill="#4A90C2" fill-opacity=".12"/>
<g fill="#4A90C2"><rect x="446" y="272" width="8" height="8"/><rect x="454" y="264" width="8" height="8"/><rect x="462" y="256" width="8" height="8"/></g>
</svg>
