<svg xmlns="http://www.w3.org/2000/svg" viewBox="0 0 480 300">
<!-- tkLeen 이론 사전 커버 · 플랫 카툰 v1 — 고장률(위험률): 욕조곡선 형태의 시간별 순간 고장률 -->
<defs>
<pattern id="dots" width="28" height="28" patternUnits="userSpaceOnUse"><circle cx="14" cy="14" r="1.3" fill="#171A20" fill-opacity=".05"/></pattern>
</defs>
<rect width="480" height="300" fill="#FAFAF7"/>
<rect width="480" height="300" fill="url(#dots)"/>
<line x1="72" y1="232" x2="408" y2="232" stroke="#171A20" stroke-width="3" stroke-linecap="round"/>
<line x1="72" y1="232" x2="72" y2="64" stroke="#171A20" stroke-width="3" stroke-linecap="round"/>
<!-- 욕조곡선(Sky) -->
<path d="M 84 96 Q 130 200 200 200 L 280 200 Q 360 200 392 92" fill="none" stroke="#4A90C2" stroke-width="5" stroke-linecap="round"/>
<text x="84" y="86" font-family="ui-monospace,Consolas,monospace" font-size="12" fill="#4A90C2">h(t)</text>
<text x="396" y="252" text-anchor="end" font-family="ui-monospace,Consolas,monospace" font-size="12" fill="#171A20" fill-opacity=".55">t</text>
<text x="232" y="222" text-anchor="middle" font-family="ui-monospace,Consolas,monospace" font-size="10" fill="#171A20" fill-opacity=".45">안정기</text>
<g transform="translate(232 174)"><circle r="13" fill="#FFFFFF" stroke="#171A20" stroke-width="3"/><circle cx="-4.5" cy="-2" r="1.8" fill="#171A20"/><circle cx="4.5" cy="-2" r="1.8" fill="#171A20"/><path d="M -5 4 Q 0 8.5 5 4" fill="none" stroke="#171A20" stroke-width="2.2" stroke-linecap="round"/></g>
<g fill="#4A90C2"><rect x="446" y="272" width="8" height="8"/><rect x="454" y="264" width="8" height="8"/><rect x="462" y="256" width="8" height="8"/></g>
</svg>
