<svg xmlns="http://www.w3.org/2000/svg" viewBox="0 0 480 300">
  <!-- tkLeen 이론 사전 커버 · 플랫 카툰 v1 — 곰페르츠: 지수적으로 가팔라지는 생존곡선 위의 세 사람 -->
  <defs>
    <pattern id="dots" width="28" height="28" patternUnits="userSpaceOnUse">
      <circle cx="14" cy="14" r="1.3" fill="#171A20" fill-opacity=".05"/>
    </pattern>
  </defs>
  <rect width="480" height="300" fill="#FAFAF7"/>
  <rect width="480" height="300" fill="url(#dots)"/>
  <path d="M 76 104 C 170 108 255 120 318 162 C 358 192 392 222 414 234 L 414 236 L 76 236 Z" fill="#EAF2F9"/>
  <path d="M 72 70 L 72 238 L 420 238" fill="none" stroke="#171A20" stroke-width="3" stroke-linecap="round" stroke-linejoin="round"/>
  <path d="M 76 104 C 170 108 255 120 318 162 C 358 192 392 222 414 234" fill="none" stroke="#4A90C2" stroke-width="5" stroke-linecap="round"/>
  <text x="82" y="64" font-family="ui-monospace,Consolas,monospace" font-size="12" fill="#171A20" opacity=".55">l(x)</text>
  <text x="396" y="260" font-family="ui-monospace,Consolas,monospace" font-size="12" fill="#171A20" opacity=".55">x →</text>
  <g transform="translate(132 90)">
    <circle r="13" fill="#FFFFFF" stroke="#171A20" stroke-width="3"/>
    <circle cx="-4.5" cy="-2" r="1.8" fill="#171A20"/><circle cx="4.5" cy="-2" r="1.8" fill="#171A20"/>
    <path d="M -5 4 Q 0 8.5 5 4" fill="none" stroke="#171A20" stroke-width="2.2" stroke-linecap="round"/>
  </g>
  <g transform="translate(318 147)">
    <circle r="13" fill="#FFFFFF" stroke="#171A20" stroke-width="3"/>
    <circle cx="-4.5" cy="-2" r="1.8" fill="#171A20"/><circle cx="4.5" cy="-2" r="1.8" fill="#171A20"/>
    <path d="M -4.5 5 L 4.5 5" fill="none" stroke="#171A20" stroke-width="2.2" stroke-linecap="round"/>
    <path d="M 17 -11 q 3.5 4.5 0 7 q -3.5 -2.5 0 -7" fill="#4A90C2"/>
  </g>
  <g transform="translate(392 212)">
    <circle r="13" fill="#FFFFFF" stroke="#171A20" stroke-width="3"/>
    <path d="M -6.5 -2.5 Q -4.5 -0.5 -2.5 -2.5" fill="none" stroke="#171A20" stroke-width="2" stroke-linecap="round"/>
    <path d="M 2.5 -2.5 Q 4.5 -0.5 6.5 -2.5" fill="none" stroke="#171A20" stroke-width="2" stroke-linecap="round"/>
    <path d="M -5 4 Q 0 8.5 5 4" fill="none" stroke="#171A20" stroke-width="2.2" stroke-linecap="round"/>
    <path d="M 15 14 L 15 0 Q 15 -6 10 -6" fill="none" stroke="#171A20" stroke-width="2.5" stroke-linecap="round"/>
  </g>
  <g fill="#4A90C2"><rect x="446" y="272" width="8" height="8"/><rect x="454" y="264" width="8" height="8"/><rect x="462" y="256" width="8" height="8"/></g>
</svg>
