<svg xmlns="http://www.w3.org/2000/svg" viewBox="0 0 480 300">
<!-- tkLeen 이론 사전 커버 · 플랫 카툰 v1 — 요한 더빗: 종신연금의 현가를 처음 계산한 17세기 정치가·수학자 -->
<defs>
<pattern id="dots" width="28" height="28" patternUnits="userSpaceOnUse"><circle cx="14" cy="14" r="1.3" fill="#171A20" fill-opacity=".05"/></pattern>
</defs>
<rect width="480" height="300" fill="#FAFAF7"/>
<rect width="480" height="300" fill="url(#dots)"/>
<!-- 인물(가발 쓴 학자) -->
<g transform="translate(190 150)">
<circle r="40" fill="#FFFFFF" stroke="#171A20" stroke-width="3"/>
<path d="M -40 -6 Q -44 -44 0 -44 Q 44 -44 40 -6 Q 30 -16 0 -16 Q -30 -16 -40 -6 Z" fill="#EAF2F9" stroke="#171A20" stroke-width="2.5"/>
<circle cx="-13" cy="-2" r="3" fill="#171A20"/><circle cx="13" cy="-2" r="3" fill="#171A20"/>
<path d="M -12 16 Q 0 22 12 16" fill="none" stroke="#171A20" stroke-width="2.5" stroke-linecap="round"/>
</g>
<!-- 종신연금 현가 식(Sky 두루마리) -->
<rect x="262" y="118" width="120" height="76" rx="8" fill="#FFFFFF" stroke="#171A20" stroke-width="3"/>
<text x="322" y="150" text-anchor="middle" font-family="ui-monospace,Consolas,monospace" font-size="13" fill="#4A90C2">ä_x</text>
<text x="322" y="174" text-anchor="middle" font-family="ui-monospace,Consolas,monospace" font-size="10" fill="#171A20" fill-opacity=".5">종신연금 현가</text>
<g fill="#4A90C2"><rect x="446" y="272" width="8" height="8"/><rect x="454" y="264" width="8" height="8"/><rect x="462" y="256" width="8" height="8"/></g>
</svg>
