<svg xmlns="http://www.w3.org/2000/svg" viewBox="0 0 480 300">
  <!-- tkLeen 이론 사전 커버 · 플랫 카툰 v1 — 변액보험: 출렁이는 유닛가격 곡선과 점선 최저보증선 위의 투자자 -->
  <defs>
    <pattern id="dots" width="28" height="28" patternUnits="userSpaceOnUse">
      <circle cx="14" cy="14" r="1.3" fill="#171A20" fill-opacity=".05"/>
    </pattern>
  </defs>
  <rect width="480" height="300" fill="#FAFAF7"/>
  <rect width="480" height="300" fill="url(#dots)"/>
  <path d="M 76 178 C 120 130 150 196 192 158 C 232 122 262 186 306 142 C 342 106 376 150 414 118 L 414 236 L 76 236 Z" fill="#EAF2F9"/>
  <path d="M 72 70 L 72 238 L 420 238" fill="none" stroke="#171A20" stroke-width="3" stroke-linecap="round" stroke-linejoin="round"/>
  <path d="M 80 206 L 414 206" fill="none" stroke="#171A20" stroke-width="2" stroke-dasharray="7 7" stroke-linecap="round" opacity=".55"/>
  <path d="M 76 178 C 120 130 150 196 192 158 C 232 122 262 186 306 142 C 342 106 376 150 414 118" fill="none" stroke="#4A90C2" stroke-width="5" stroke-linecap="round"/>
  <text x="82" y="64" font-family="ui-monospace,Consolas,monospace" font-size="12" fill="#171A20" opacity=".55">u(t)</text>
  <text x="396" y="260" font-family="ui-monospace,Consolas,monospace" font-size="12" fill="#171A20" opacity=".55">t →</text>
  <text x="86" y="222" font-family="ui-monospace,Consolas,monospace" font-size="12" fill="#171A20" opacity=".55">min G</text>
  <g transform="translate(306 124)">
    <circle r="13" fill="#FFFFFF" stroke="#171A20" stroke-width="3"/>
    <circle cx="-4.5" cy="-2" r="1.8" fill="#171A20"/><circle cx="4.5" cy="-2" r="1.8" fill="#171A20"/>
    <path d="M -5 4 Q 0 8.5 5 4" fill="none" stroke="#171A20" stroke-width="2.2" stroke-linecap="round"/>
    <path d="M 17 -11 q 3.5 4.5 0 7 q -3.5 -2.5 0 -7" fill="#4A90C2"/>
  </g>
  <g fill="#4A90C2"><rect x="446" y="272" width="8" height="8"/><rect x="454" y="264" width="8" height="8"/><rect x="462" y="256" width="8" height="8"/></g>
</svg>
