<svg xmlns="http://www.w3.org/2000/svg" viewBox="0 0 480 300">
<!-- tkLeen 이론 사전 커버 · 플랫 카툰 v1 — 보정·평활(graduation): 들쭉날쭉한 원자료를 매끄러운 곡선으로 -->
<defs>
<pattern id="dots" width="28" height="28" patternUnits="userSpaceOnUse"><circle cx="14" cy="14" r="1.3" fill="#171A20" fill-opacity=".05"/></pattern>
</defs>
<rect width="480" height="300" fill="#FAFAF7"/>
<rect width="480" height="300" fill="url(#dots)"/>
<line x1="72" y1="232" x2="408" y2="232" stroke="#171A20" stroke-width="3" stroke-linecap="round"/>
<line x1="72" y1="232" x2="72" y2="64" stroke="#171A20" stroke-width="3" stroke-linecap="round"/>
<!-- 원자료 점(들쭉날쭉) -->
<g fill="#171A20" fill-opacity=".5"><circle cx="100" cy="196" r="3.5"/><circle cx="136" cy="170" r="3.5"/><circle cx="172" cy="184" r="3.5"/><circle cx="208" cy="150" r="3.5"/><circle cx="244" cy="162" r="3.5"/><circle cx="280" cy="124" r="3.5"/><circle cx="316" cy="138" r="3.5"/><circle cx="352" cy="100" r="3.5"/></g>
<!-- 평활 곡선(Sky) -->
<path d="M 100 192 Q 200 158 360 102" fill="none" stroke="#4A90C2" stroke-width="5" stroke-linecap="round"/>
<text x="110" y="120" font-family="ui-monospace,Consolas,monospace" font-size="11" fill="#4A90C2">평활된 q_x</text>
<g transform="translate(384 90)"><circle r="13" fill="#FFFFFF" stroke="#171A20" stroke-width="3"/><circle cx="-4.5" cy="-2" r="1.8" fill="#171A20"/><circle cx="4.5" cy="-2" r="1.8" fill="#171A20"/><path d="M -5 4 Q 0 8.5 5 4" fill="none" stroke="#171A20" stroke-width="2.2" stroke-linecap="round"/></g>
<g fill="#4A90C2"><rect x="446" y="272" width="8" height="8"/><rect x="454" y="264" width="8" height="8"/><rect x="462" y="256" width="8" height="8"/></g>
</svg>
