<svg xmlns="http://www.w3.org/2000/svg" viewBox="0 0 480 300">
  <!-- tkLeen 이론 사전 커버 · 플랫 카툰 v1 — 생명연금보험의잉여금: 기준선 위로 차오른 잉여(물탱크)와 기뻐하는 두 사람 -->
  <defs>
    <pattern id="dots" width="28" height="28" patternUnits="userSpaceOnUse">
      <circle cx="14" cy="14" r="1.3" fill="#171A20" fill-opacity=".05"/>
    </pattern>
  </defs>
  <rect width="480" height="300" fill="#FAFAF7"/>
  <rect width="480" height="300" fill="url(#dots)"/>
  <path d="M 178 96 L 178 232 L 302 232 L 302 96" fill="none" stroke="#171A20" stroke-width="3" stroke-linecap="round" stroke-linejoin="round"/>
  <rect x="181" y="160" width="118" height="70" fill="#EAF2F9"/>
  <path d="M 181 160 Q 196 152 211 160 T 241 160 T 271 160 T 299 160" fill="none" stroke="#4A90C2" stroke-width="5" stroke-linecap="round"/>
  <path d="M 166 188 L 314 188" fill="none" stroke="#171A20" stroke-width="2" stroke-dasharray="7 7" stroke-linecap="round" opacity=".55"/>
  <text x="318" y="192" font-family="ui-monospace,Consolas,monospace" font-size="12" fill="#171A20" opacity=".55">V</text>
  <text x="318" y="156" font-family="ui-monospace,Consolas,monospace" font-size="12" fill="#171A20" opacity=".55">S&gt;0</text>
  <g transform="translate(132 216)">
    <circle r="13" fill="#FFFFFF" stroke="#171A20" stroke-width="3"/>
    <path d="M -6.5 -2.5 Q -4.5 -0.5 -2.5 -2.5" fill="none" stroke="#171A20" stroke-width="2" stroke-linecap="round"/>
    <path d="M 2.5 -2.5 Q 4.5 -0.5 6.5 -2.5" fill="none" stroke="#171A20" stroke-width="2" stroke-linecap="round"/>
    <path d="M -5 3 Q 0 9.5 5 3 Z" fill="#171A20"/>
  </g>
  <g transform="translate(348 216)">
    <circle r="13" fill="#EEF4FF" stroke="#171A20" stroke-width="3"/>
    <circle cx="-4.5" cy="-2" r="1.8" fill="#171A20"/><circle cx="4.5" cy="-2" r="1.8" fill="#171A20"/>
    <path d="M -5 4 Q 0 8.5 5 4" fill="none" stroke="#171A20" stroke-width="2.2" stroke-linecap="round"/>
  </g>
  <g fill="#4A90C2"><rect x="446" y="272" width="8" height="8"/><rect x="454" y="264" width="8" height="8"/><rect x="462" y="256" width="8" height="8"/></g>
</svg>
