<svg xmlns="http://www.w3.org/2000/svg" viewBox="0 0 480 300">
  <!-- tkLeen 이론 사전 커버 · 플랫 카툰 v1 — 생명보험부채평가: 자산(A)과 부채(L)를 재는 저울과 평가 계리사 -->
  <defs>
    <pattern id="dots" width="28" height="28" patternUnits="userSpaceOnUse">
      <circle cx="14" cy="14" r="1.3" fill="#171A20" fill-opacity=".05"/>
    </pattern>
  </defs>
  <rect width="480" height="300" fill="#FAFAF7"/>
  <rect width="480" height="300" fill="url(#dots)"/>
  <path d="M 240 112 L 240 220" fill="none" stroke="#171A20" stroke-width="3" stroke-linecap="round"/>
  <path d="M 196 232 L 284 232" fill="none" stroke="#171A20" stroke-width="3" stroke-linecap="round"/>
  <path d="M 142 122 L 338 102" fill="none" stroke="#4A90C2" stroke-width="5" stroke-linecap="round"/>
  <path d="M 142 122 L 142 158 M 122 158 Q 142 176 162 158 M 338 102 L 338 138 M 318 138 Q 338 156 358 138" fill="none" stroke="#171A20" stroke-width="2.5" stroke-linecap="round" stroke-linejoin="round"/>
  <rect x="128" y="142" width="28" height="20" rx="3" fill="#EAF2F9" stroke="#171A20" stroke-width="2.5"/>
  <rect x="322" y="116" width="32" height="26" rx="3" fill="#EAF2F9" stroke="#171A20" stroke-width="2.5"/>
  <text x="136" y="186" font-family="ui-monospace,Consolas,monospace" font-size="12" fill="#171A20" opacity=".55">A</text>
  <text x="334" y="170" font-family="ui-monospace,Consolas,monospace" font-size="12" fill="#171A20" opacity=".55">L = E[PV]</text>
  <g transform="translate(240 96)">
    <circle r="13" fill="#FFFFFF" stroke="#171A20" stroke-width="3"/>
    <circle cx="-4.5" cy="-2" r="1.8" fill="#171A20"/><circle cx="4.5" cy="-2" r="1.8" fill="#171A20"/>
    <path d="M -4.5 5 L 4.5 5" fill="none" stroke="#171A20" stroke-width="2.2" stroke-linecap="round"/>
  </g>
  <g fill="#4A90C2"><rect x="446" y="272" width="8" height="8"/><rect x="454" y="264" width="8" height="8"/><rect x="462" y="256" width="8" height="8"/></g>
</svg>
