<svg xmlns="http://www.w3.org/2000/svg" viewBox="0 0 480 300">
  <!-- tkLeen 이론 사전 커버 · 플랫 카툰 v1 — 생명보험의기초율: 세 개의 가정 다이얼(qx·i·e)을 조정하는 계리사 -->
  <defs>
    <pattern id="dots" width="28" height="28" patternUnits="userSpaceOnUse">
      <circle cx="14" cy="14" r="1.3" fill="#171A20" fill-opacity=".05"/>
    </pattern>
  </defs>
  <rect width="480" height="300" fill="#FAFAF7"/>
  <rect width="480" height="300" fill="url(#dots)"/>
  <rect x="96" y="92" width="288" height="120" rx="10" fill="#FFFFFF" stroke="#171A20" stroke-width="3"/>
  <g>
    <circle cx="160" cy="140" r="24" fill="#EAF2F9" stroke="#171A20" stroke-width="3"/>
    <path d="M 160 140 L 148 124" stroke="#4A90C2" stroke-width="5" stroke-linecap="round"/>
    <text x="152" y="190" font-family="ui-monospace,Consolas,monospace" font-size="12" fill="#171A20" opacity=".55">qx</text>
  </g>
  <g>
    <circle cx="240" cy="140" r="24" fill="#EAF2F9" stroke="#171A20" stroke-width="3"/>
    <path d="M 240 140 L 240 120" stroke="#4A90C2" stroke-width="5" stroke-linecap="round"/>
    <text x="236" y="190" font-family="ui-monospace,Consolas,monospace" font-size="12" fill="#171A20" opacity=".55">i</text>
  </g>
  <g>
    <circle cx="320" cy="140" r="24" fill="#EAF2F9" stroke="#171A20" stroke-width="3"/>
    <path d="M 320 140 L 334 126" stroke="#4A90C2" stroke-width="5" stroke-linecap="round"/>
    <text x="314" y="190" font-family="ui-monospace,Consolas,monospace" font-size="12" fill="#171A20" opacity=".55">e</text>
  </g>
  <g transform="translate(404 226)">
    <circle r="13" fill="#FFFFFF" stroke="#171A20" stroke-width="3"/>
    <circle cx="-4.5" cy="-2" r="1.8" fill="#171A20"/><circle cx="4.5" cy="-2" r="1.8" fill="#171A20"/>
    <path d="M -5 4 Q 0 8.5 5 4" fill="none" stroke="#171A20" stroke-width="2.2" stroke-linecap="round"/>
  </g>
  <g fill="#4A90C2"><rect x="446" y="272" width="8" height="8"/><rect x="454" y="264" width="8" height="8"/><rect x="462" y="256" width="8" height="8"/></g>
</svg>
