<svg xmlns="http://www.w3.org/2000/svg" viewBox="0 0 480 300">
  <!-- tkLeen 이론 사전 커버 · 플랫 카툰 v1 — 생존분석: 카플란–마이어 계단형 생존곡선과 중도절단 표시(+) -->
  <defs>
    <pattern id="dots" width="28" height="28" patternUnits="userSpaceOnUse">
      <circle cx="14" cy="14" r="1.3" fill="#171A20" fill-opacity=".05"/>
    </pattern>
  </defs>
  <rect width="480" height="300" fill="#FAFAF7"/>
  <rect width="480" height="300" fill="url(#dots)"/>
  <path d="M 76 100 L 150 100 L 150 128 L 212 128 L 212 152 L 286 152 L 286 184 L 352 184 L 352 210 L 414 210 L 414 236 L 76 236 Z" fill="#EAF2F9"/>
  <path d="M 72 70 L 72 238 L 420 238" fill="none" stroke="#171A20" stroke-width="3" stroke-linecap="round" stroke-linejoin="round"/>
  <path d="M 76 100 L 150 100 L 150 128 L 212 128 L 212 152 L 286 152 L 286 184 L 352 184 L 352 210 L 414 210" fill="none" stroke="#4A90C2" stroke-width="5" stroke-linecap="round" stroke-linejoin="round"/>
  <g stroke="#171A20" stroke-width="2.5" stroke-linecap="round">
    <path d="M 178 122 L 178 134 M 172 128 L 184 128"/>
    <path d="M 322 178 L 322 190 M 316 184 L 328 184"/>
  </g>
  <text x="82" y="64" font-family="ui-monospace,Consolas,monospace" font-size="12" fill="#171A20" opacity=".55">S(t)</text>
  <text x="396" y="260" font-family="ui-monospace,Consolas,monospace" font-size="12" fill="#171A20" opacity=".55">t →</text>
  <g transform="translate(248 134)">
    <circle r="13" fill="#FFFFFF" stroke="#171A20" stroke-width="3"/>
    <circle cx="-4.5" cy="-2" r="1.8" fill="#171A20"/><circle cx="4.5" cy="-2" r="1.8" fill="#171A20"/>
    <path d="M -5 4 Q 0 8.5 5 4" fill="none" stroke="#171A20" stroke-width="2.2" stroke-linecap="round"/>
  </g>
  <g fill="#4A90C2"><rect x="446" y="272" width="8" height="8"/><rect x="454" y="264" width="8" height="8"/><rect x="462" y="256" width="8" height="8"/></g>
</svg>
