<svg xmlns="http://www.w3.org/2000/svg" viewBox="0 0 480 300">
  <!-- tkLeen 이론 사전 커버 · 플랫 카툰 v1 — 연금수학: 기여금 막대가 쌓여 기금이 자라는 적립 곡선 -->
  <defs>
    <pattern id="dots" width="28" height="28" patternUnits="userSpaceOnUse">
      <circle cx="14" cy="14" r="1.3" fill="#171A20" fill-opacity=".05"/>
    </pattern>
  </defs>
  <rect width="480" height="300" fill="#FAFAF7"/>
  <rect width="480" height="300" fill="url(#dots)"/>
  <path d="M 72 70 L 72 238 L 420 238" fill="none" stroke="#171A20" stroke-width="3" stroke-linecap="round" stroke-linejoin="round"/>
  <g fill="#EAF2F9" stroke="#171A20" stroke-width="2.5">
    <rect x="100" y="206" width="26" height="30"/>
    <rect x="156" y="188" width="26" height="48"/>
    <rect x="212" y="166" width="26" height="70"/>
    <rect x="268" y="138" width="26" height="98"/>
    <rect x="324" y="104" width="26" height="132"/>
  </g>
  <path d="M 92 222 C 170 214 250 180 300 146 C 332 124 360 102 386 84" fill="none" stroke="#4A90C2" stroke-width="5" stroke-linecap="round"/>
  <text x="82" y="64" font-family="ui-monospace,Consolas,monospace" font-size="12" fill="#171A20" opacity=".55">F(t)=F(0)(1+i)+C</text>
  <text x="396" y="260" font-family="ui-monospace,Consolas,monospace" font-size="12" fill="#171A20" opacity=".55">t →</text>
  <g transform="translate(396 66)">
    <circle r="13" fill="#FFFFFF" stroke="#171A20" stroke-width="3"/>
    <circle cx="-4.5" cy="-2" r="1.8" fill="#171A20"/><circle cx="4.5" cy="-2" r="1.8" fill="#171A20"/>
    <path d="M -5 3 Q 0 9.5 5 3 Z" fill="#171A20"/>
  </g>
  <g fill="#4A90C2"><rect x="446" y="272" width="8" height="8"/><rect x="454" y="264" width="8" height="8"/><rect x="462" y="256" width="8" height="8"/></g>
</svg>
