<svg xmlns="http://www.w3.org/2000/svg" viewBox="0 0 480 300">
  <!-- tkLeen 이론 사전 커버 · 플랫 카툰 v1 — 연금: 3층(국가·사용자·개인) 계단을 올라 정상에서 쉬는 은퇴자 -->
  <defs>
    <pattern id="dots" width="28" height="28" patternUnits="userSpaceOnUse">
      <circle cx="14" cy="14" r="1.3" fill="#171A20" fill-opacity=".05"/>
    </pattern>
  </defs>
  <rect width="480" height="300" fill="#FAFAF7"/>
  <rect width="480" height="300" fill="url(#dots)"/>
  <rect x="120" y="196" width="240" height="40" fill="#EAF2F9" stroke="#171A20" stroke-width="3"/>
  <rect x="150" y="156" width="180" height="40" fill="#EAF2F9" stroke="#171A20" stroke-width="3"/>
  <rect x="180" y="116" width="120" height="40" fill="#FFFFFF" stroke="#171A20" stroke-width="3"/>
  <path d="M 186 236 L 186 196 M 216 196 L 216 156 M 246 156 L 246 116" fill="none" stroke="#4A90C2" stroke-width="5" stroke-linecap="round"/>
  <text x="130" y="222" font-family="ui-monospace,Consolas,monospace" font-size="12" fill="#171A20" opacity=".55">1</text>
  <text x="160" y="182" font-family="ui-monospace,Consolas,monospace" font-size="12" fill="#171A20" opacity=".55">2</text>
  <text x="190" y="142" font-family="ui-monospace,Consolas,monospace" font-size="12" fill="#171A20" opacity=".55">3</text>
  <g transform="translate(254 94)">
    <circle r="13" fill="#FFFFFF" stroke="#171A20" stroke-width="3"/>
    <path d="M -6.5 -2.5 Q -4.5 -0.5 -2.5 -2.5" fill="none" stroke="#171A20" stroke-width="2" stroke-linecap="round"/>
    <path d="M 2.5 -2.5 Q 4.5 -0.5 6.5 -2.5" fill="none" stroke="#171A20" stroke-width="2" stroke-linecap="round"/>
    <path d="M -5 4 Q 0 8.5 5 4" fill="none" stroke="#171A20" stroke-width="2.2" stroke-linecap="round"/>
    <path d="M 15 14 L 15 0 Q 15 -6 10 -6" fill="none" stroke="#171A20" stroke-width="2.5" stroke-linecap="round"/>
  </g>
  <g transform="translate(96 222)">
    <circle r="13" fill="#EEF4FF" stroke="#171A20" stroke-width="3"/>
    <circle cx="-4.5" cy="-2" r="1.8" fill="#171A20"/><circle cx="4.5" cy="-2" r="1.8" fill="#171A20"/>
    <path d="M -5 4 Q 0 8.5 5 4" fill="none" stroke="#171A20" stroke-width="2.2" stroke-linecap="round"/>
  </g>
  <g fill="#4A90C2"><rect x="446" y="272" width="8" height="8"/><rect x="454" y="264" width="8" height="8"/><rect x="462" y="256" width="8" height="8"/></g>
</svg>
