<svg xmlns="http://www.w3.org/2000/svg" viewBox="0 0 480 300">
  <!-- tkLeen 이론 사전 커버 · 플랫 카툰 v1 — 해약과계약변경: 계약의 문을 나서며 해약환급금(동전)을 받는 사람과 갈림길 -->
  <defs>
    <pattern id="dots" width="28" height="28" patternUnits="userSpaceOnUse">
      <circle cx="14" cy="14" r="1.3" fill="#171A20" fill-opacity=".05"/>
    </pattern>
  </defs>
  <rect width="480" height="300" fill="#FAFAF7"/>
  <rect width="480" height="300" fill="url(#dots)"/>
  <rect x="116" y="84" width="96" height="152" fill="#EAF2F9" stroke="#171A20" stroke-width="3"/>
  <path d="M 212 84 L 212 236 L 168 218 L 168 102 Z" fill="#FFFFFF" stroke="#171A20" stroke-width="3" stroke-linejoin="round"/>
  <circle cx="180" cy="162" r="3" fill="#171A20"/>
  <path d="M 236 200 C 268 200 292 200 320 200" fill="none" stroke="#171A20" stroke-width="2" stroke-dasharray="7 7" stroke-linecap="round" opacity=".55"/>
  <path d="M 320 200 C 348 200 366 184 384 164 M 320 200 C 348 200 366 216 384 232" fill="none" stroke="#171A20" stroke-width="2" stroke-dasharray="7 7" stroke-linecap="round" opacity=".55"/>
  <path d="M 384 164 L 374 164 M 384 164 L 380 173 M 384 232 L 374 232 M 384 232 L 380 223" fill="none" stroke="#171A20" stroke-width="2" stroke-linecap="round" opacity=".55"/>
  <g transform="translate(258 186)">
    <circle r="13" fill="#FFFFFF" stroke="#171A20" stroke-width="3"/>
    <circle cx="-4.5" cy="-2" r="1.8" fill="#171A20"/><circle cx="4.5" cy="-2" r="1.8" fill="#171A20"/>
    <path d="M -4.5 5 L 4.5 5" fill="none" stroke="#171A20" stroke-width="2.2" stroke-linecap="round"/>
    <path d="M -22 -4 L -16 -4 M -22 2 L -17 2" stroke="#171A20" stroke-width="2" stroke-linecap="round" opacity=".3"/>
  </g>
  <circle cx="292" cy="160" r="11" fill="#4A90C2"/>
  <text x="287" y="165" font-family="ui-monospace,Consolas,monospace" font-size="12" fill="#FAFAF7">W</text>
  <text x="392" y="168" font-family="ui-monospace,Consolas,monospace" font-size="12" fill="#171A20" opacity=".55">alt</text>
  <text x="392" y="236" font-family="ui-monospace,Consolas,monospace" font-size="12" fill="#171A20" opacity=".55">surr</text>
  <g fill="#4A90C2"><rect x="446" y="272" width="8" height="8"/><rect x="454" y="264" width="8" height="8"/><rect x="462" y="256" width="8" height="8"/></g>
</svg>
