<svg xmlns="http://www.w3.org/2000/svg" viewBox="0 0 480 300">
  <!-- tkLeen 이론 사전 커버 · 플랫 카툰 v1 — 개별위험모형: 개별 계약 블록들이 합쳐져(Σ) 하나의 총손해 분포가 되는 합성곱 -->
  <defs>
    <pattern id="dots" width="28" height="28" patternUnits="userSpaceOnUse">
      <circle cx="14" cy="14" r="1.3" fill="#171A20" fill-opacity=".05"/>
    </pattern>
  </defs>
  <rect width="480" height="300" fill="#FAFAF7"/>
  <rect width="480" height="300" fill="url(#dots)"/>
  <g fill="#FFFFFF" stroke="#171A20" stroke-width="2.5">
    <rect x="84" y="100" width="30" height="30" rx="5"/>
    <rect x="124" y="100" width="30" height="30" rx="5"/>
    <rect x="84" y="140" width="30" height="30" rx="5"/>
    <rect x="124" y="140" width="30" height="30" rx="5"/>
    <rect x="84" y="180" width="30" height="30" rx="5"/>
    <rect x="124" y="180" width="30" height="30" rx="5"/>
  </g>
  <text x="92" y="121" font-family="ui-monospace,Consolas,monospace" font-size="12" fill="#171A20" opacity=".55">X1</text>
  <text x="132" y="121" font-family="ui-monospace,Consolas,monospace" font-size="12" fill="#171A20" opacity=".55">X2</text>
  <text x="92" y="161" font-family="ui-monospace,Consolas,monospace" font-size="12" fill="#171A20" opacity=".55">X3</text>
  <text x="132" y="161" font-family="ui-monospace,Consolas,monospace" font-size="12" fill="#171A20" opacity=".55">X4</text>
  <text x="92" y="201" font-family="ui-monospace,Consolas,monospace" font-size="12" fill="#171A20" opacity=".55">X5</text>
  <text x="130" y="201" font-family="ui-monospace,Consolas,monospace" font-size="12" fill="#171A20" opacity=".55">Xn</text>
  <path d="M 172 155 L 218 155 M 218 155 L 208 148 M 218 155 L 208 162" fill="none" stroke="#171A20" stroke-width="2.5" stroke-linecap="round" stroke-linejoin="round"/>
  <text x="184" y="144" font-family="ui-monospace,Consolas,monospace" font-size="12" fill="#171A20" opacity=".55">Σ</text>
  <path d="M 240 214 C 268 214 280 118 312 118 C 344 118 356 214 384 214 L 384 216 L 240 216 Z" fill="#EAF2F9"/>
  <path d="M 240 214 C 268 214 280 118 312 118 C 344 118 356 214 384 214" fill="none" stroke="#4A90C2" stroke-width="5" stroke-linecap="round"/>
  <path d="M 232 220 L 392 220" fill="none" stroke="#171A20" stroke-width="3" stroke-linecap="round"/>
  <text x="296" y="244" font-family="ui-monospace,Consolas,monospace" font-size="12" fill="#171A20" opacity=".55">S=ΣXi</text>
  <g transform="translate(412 196)">
    <circle r="13" fill="#FFFFFF" stroke="#171A20" stroke-width="3"/>
    <circle cx="-4.5" cy="-2" r="1.8" fill="#171A20"/><circle cx="4.5" cy="-2" r="1.8" fill="#171A20"/>
    <path d="M -5 4 Q 0 8.5 5 4" fill="none" stroke="#171A20" stroke-width="2.2" stroke-linecap="round"/>
  </g>
  <g fill="#4A90C2"><rect x="446" y="272" width="8" height="8"/><rect x="454" y="264" width="8" height="8"/><rect x="462" y="256" width="8" height="8"/></g>
</svg>
