<svg xmlns="http://www.w3.org/2000/svg" viewBox="0 0 480 300">
  <!-- tkLeen 이론 사전 커버 · 플랫 카툰 v1 — 룬드베리 부등식: 파산확률 ψ(u)를 누르는 지수 상한선 e^-Ru -->
  <defs>
    <pattern id="dots" width="28" height="28" patternUnits="userSpaceOnUse">
      <circle cx="14" cy="14" r="1.3" fill="#171A20" fill-opacity=".05"/>
    </pattern>
  </defs>
  <rect width="480" height="300" fill="#FAFAF7"/>
  <rect width="480" height="300" fill="url(#dots)"/>
  <path d="M 72 70 L 72 238 L 420 238" fill="none" stroke="#171A20" stroke-width="3" stroke-linecap="round" stroke-linejoin="round"/>
  <!-- 지수 상한선 (Sky) -->
  <path d="M 80 92 C 150 120 220 165 280 192 C 330 210 380 222 408 228" fill="none" stroke="#4A90C2" stroke-width="5" stroke-linecap="round"/>
  <!-- 실제 파산확률 (점선, 항상 상한 아래) -->
  <path d="M 80 124 C 150 156 220 192 280 212 C 330 224 374 231 404 234" fill="none" stroke="#171A20" stroke-width="2.5" stroke-linecap="round" stroke-dasharray="6 6" opacity=".55"/>
  <text x="92" y="84" font-family="ui-monospace,Consolas,monospace" font-size="12" fill="#171A20" opacity=".55">e^-Ru</text>
  <text x="128" y="150" font-family="ui-monospace,Consolas,monospace" font-size="12" fill="#171A20" opacity=".55">ψ(u)</text>
  <text x="398" y="258" font-family="ui-monospace,Consolas,monospace" font-size="12" fill="#171A20" opacity=".55">u →</text>
  <!-- 상한 아래라 안심한 캐릭터 -->
  <g transform="translate(360 215)">
    <circle r="13" fill="#FFFFFF" stroke="#171A20" stroke-width="3"/>
    <path d="M -6.5 -2.5 Q -4.5 -4.5 -2.5 -2.5" fill="none" stroke="#171A20" stroke-width="2" stroke-linecap="round"/>
    <path d="M 2.5 -2.5 Q 4.5 -4.5 6.5 -2.5" fill="none" stroke="#171A20" stroke-width="2" stroke-linecap="round"/>
    <path d="M -5 4 Q 0 8.5 5 4" fill="none" stroke="#171A20" stroke-width="2.2" stroke-linecap="round"/>
  </g>
  <g fill="#4A90C2"><rect x="446" y="272" width="8" height="8"/><rect x="454" y="264" width="8" height="8"/><rect x="462" y="256" width="8" height="8"/></g>
</svg>
