<!-- tkLeen 이론 사전 커버 · 플랫 카툰 v1 — 보험에서의풀링: 여러 구성원이 가운데 공동 풀(Sky 원)에 위험을 모아 나누는 장면 -->
<svg xmlns="http://www.w3.org/2000/svg" viewBox="0 0 480 300">
  <defs>
    <pattern id="dots" width="28" height="28" patternUnits="userSpaceOnUse">
      <circle cx="14" cy="14" r="1.3" fill="#171A20" fill-opacity=".05"/>
    </pattern>
  </defs>
  <rect width="480" height="300" fill="#FAFAF7"/>
  <rect width="480" height="300" fill="url(#dots)"/>
  <!-- 중앙 풀 (Sky 원) -->
  <circle cx="240" cy="158" r="52" fill="#EAF2F9" stroke="#4A90C2" stroke-width="5"/>
  <text x="218" y="163" font-family="ui-monospace,Consolas,monospace" font-size="13" fill="#171A20" opacity=".55">X_M</text>
  <!-- 연결선: 구성원 → 풀 -->
  <line x1="120" y1="140" x2="190" y2="150" stroke="#171A20" stroke-width="2" stroke-linecap="round" stroke-dasharray="5,4" opacity=".5"/>
  <line x1="120" y1="200" x2="190" y2="170" stroke="#171A20" stroke-width="2" stroke-linecap="round" stroke-dasharray="5,4" opacity=".5"/>
  <line x1="360" y1="140" x2="292" y2="150" stroke="#171A20" stroke-width="2" stroke-linecap="round" stroke-dasharray="5,4" opacity=".5"/>
  <line x1="360" y1="200" x2="292" y2="170" stroke="#171A20" stroke-width="2" stroke-linecap="round" stroke-dasharray="5,4" opacity=".5"/>
  <line x1="240" y1="72" x2="240" y2="108" stroke="#171A20" stroke-width="2" stroke-linecap="round" stroke-dasharray="5,4" opacity=".5"/>
  <!-- 구성원 캐릭터 5명 (파스텔 얼굴) -->
  <g transform="translate(108 134)">
    <circle r="13" fill="#EEF4FF" stroke="#171A20" stroke-width="3"/>
    <circle cx="-4.5" cy="-2" r="1.8" fill="#171A20"/><circle cx="4.5" cy="-2" r="1.8" fill="#171A20"/>
    <path d="M -5 4 Q 0 8.5 5 4" fill="none" stroke="#171A20" stroke-width="2.2" stroke-linecap="round"/>
  </g>
  <g transform="translate(108 208)">
    <circle r="13" fill="#ECFDF5" stroke="#171A20" stroke-width="3"/>
    <circle cx="-4.5" cy="-2" r="1.8" fill="#171A20"/><circle cx="4.5" cy="-2" r="1.8" fill="#171A20"/>
    <path d="M -5 4 Q 0 8.5 5 4" fill="none" stroke="#171A20" stroke-width="2.2" stroke-linecap="round"/>
  </g>
  <g transform="translate(372 134)">
    <circle r="13" fill="#FFF7ED" stroke="#171A20" stroke-width="3"/>
    <circle cx="-4.5" cy="-2" r="1.8" fill="#171A20"/><circle cx="4.5" cy="-2" r="1.8" fill="#171A20"/>
    <path d="M -5 4 Q 0 8.5 5 4" fill="none" stroke="#171A20" stroke-width="2.2" stroke-linecap="round"/>
  </g>
  <g transform="translate(372 208)">
    <circle r="13" fill="#F5F3FF" stroke="#171A20" stroke-width="3"/>
    <circle cx="-4.5" cy="-2" r="1.8" fill="#171A20"/><circle cx="4.5" cy="-2" r="1.8" fill="#171A20"/>
    <path d="M -5 4 Q 0 8.5 5 4" fill="none" stroke="#171A20" stroke-width="2.2" stroke-linecap="round"/>
  </g>
  <g transform="translate(240 60)">
    <circle r="13" fill="#FFFFFF" stroke="#171A20" stroke-width="3"/>
    <circle cx="-4.5" cy="-2" r="1.8" fill="#171A20"/><circle cx="4.5" cy="-2" r="1.8" fill="#171A20"/>
    <path d="M -5 4 Q 0 8.5 5 4" fill="none" stroke="#171A20" stroke-width="2.2" stroke-linecap="round"/>
  </g>
  <!-- tkLeen 픽셀 시그니처 -->
  <g fill="#4A90C2"><rect x="446" y="272" width="8" height="8"/><rect x="454" y="264" width="8" height="8"/><rect x="462" y="256" width="8" height="8"/></g>
</svg>
