<svg xmlns="http://www.w3.org/2000/svg" viewBox="0 0 480 300">
  <!-- tkLeen 이론 사전 커버 · 플랫 카툰 v1 — 복합포아송빈도모형: 사고건수 확률 히스토그램 P(N=k)과 λ 다이얼 -->
  <defs>
    <pattern id="dots" width="28" height="28" patternUnits="userSpaceOnUse">
      <circle cx="14" cy="14" r="1.3" fill="#171A20" fill-opacity=".05"/>
    </pattern>
  </defs>
  <rect width="480" height="300" fill="#FAFAF7"/>
  <rect width="480" height="300" fill="url(#dots)"/>
  <path d="M 72 70 L 72 238 L 420 238" fill="none" stroke="#171A20" stroke-width="3" stroke-linecap="round" stroke-linejoin="round"/>
  <g stroke="#171A20" stroke-width="2.5">
    <rect x="100" y="148" width="34" height="88" fill="#EAF2F9"/>
    <rect x="152" y="112" width="34" height="124" fill="#4A90C2"/>
    <rect x="204" y="138" width="34" height="98" fill="#EAF2F9"/>
    <rect x="256" y="178" width="34" height="58" fill="#EAF2F9"/>
    <rect x="308" y="206" width="34" height="30" fill="#EAF2F9"/>
    <rect x="360" y="224" width="34" height="12" fill="#EAF2F9"/>
  </g>
  <text x="82" y="64" font-family="ui-monospace,Consolas,monospace" font-size="12" fill="#171A20" opacity=".55">P(N=k)</text>
  <text x="112" y="258" font-family="ui-monospace,Consolas,monospace" font-size="12" fill="#171A20" opacity=".55">0</text>
  <text x="164" y="258" font-family="ui-monospace,Consolas,monospace" font-size="12" fill="#171A20" opacity=".55">1</text>
  <text x="216" y="258" font-family="ui-monospace,Consolas,monospace" font-size="12" fill="#171A20" opacity=".55">2</text>
  <text x="268" y="258" font-family="ui-monospace,Consolas,monospace" font-size="12" fill="#171A20" opacity=".55">3</text>
  <text x="372" y="258" font-family="ui-monospace,Consolas,monospace" font-size="12" fill="#171A20" opacity=".55">k →</text>
  <text x="330" y="100" font-family="ui-monospace,Consolas,monospace" font-size="12" fill="#171A20" opacity=".55">E[N]=λ</text>
  <g transform="translate(412 102)">
    <circle r="13" fill="#FFFFFF" stroke="#171A20" stroke-width="3"/>
    <circle cx="-4.5" cy="-2" r="1.8" fill="#171A20"/><circle cx="4.5" cy="-2" r="1.8" fill="#171A20"/>
    <path d="M -5 4 Q 0 8.5 5 4" fill="none" stroke="#171A20" stroke-width="2.2" stroke-linecap="round"/>
  </g>
  <g fill="#4A90C2"><rect x="446" y="272" width="8" height="8"/><rect x="454" y="264" width="8" height="8"/><rect x="462" y="256" width="8" height="8"/></g>
</svg>
