<svg xmlns="http://www.w3.org/2000/svg" viewBox="0 0 480 300">
<!-- tkLeen 이론 사전 커버 · 플랫 카툰 v1 — 순트 분포족: 재귀식 (a,b)로 생성되는 빈도분포 계열 -->
<defs>
<pattern id="dots" width="28" height="28" patternUnits="userSpaceOnUse"><circle cx="14" cy="14" r="1.3" fill="#171A20" fill-opacity=".05"/></pattern>
</defs>
<rect width="480" height="300" fill="#FAFAF7"/>
<rect width="480" height="300" fill="url(#dots)"/>
<line x1="72" y1="232" x2="408" y2="232" stroke="#171A20" stroke-width="3" stroke-linecap="round"/>
<line x1="72" y1="232" x2="72" y2="64" stroke="#171A20" stroke-width="3" stroke-linecap="round"/>
<!-- 빈도분포 막대(포아송·이항·음이항 계열) -->
<g stroke="#171A20" stroke-width="2.5" fill="#EAF2F9">
<rect x="104" y="172" width="30" height="60"/>
<rect x="142" y="120" width="30" height="112"/>
<rect x="180" y="104" width="30" height="128"/>
<rect x="218" y="138" width="30" height="94"/>
<rect x="256" y="180" width="30" height="52"/>
<rect x="294" y="206" width="30" height="26"/>
</g>
<!-- 재귀 관계식 라벨 -->
<path d="M 119 160 Q 160 96 195 92" fill="none" stroke="#4A90C2" stroke-width="5" stroke-linecap="round"/>
<text x="250" y="110" font-family="ui-monospace,Consolas,monospace" font-size="12" fill="#4A90C2">p_k=(a+b/k)p_(k-1)</text>
<g fill="#4A90C2"><rect x="446" y="272" width="8" height="8"/><rect x="454" y="264" width="8" height="8"/><rect x="462" y="256" width="8" height="8"/></g>
</svg>
