<svg xmlns="http://www.w3.org/2000/svg" viewBox="0 0 480 300">
<!-- tkLeen 이론 사전 커버 · 플랫 카툰 v1 — 순트–주얼 분포족: k계단 재귀로 확장된 빈도분포 계열 -->
<defs>
<pattern id="dots" width="28" height="28" patternUnits="userSpaceOnUse"><circle cx="14" cy="14" r="1.3" fill="#171A20" fill-opacity=".05"/></pattern>
</defs>
<rect width="480" height="300" fill="#FAFAF7"/>
<rect width="480" height="300" fill="url(#dots)"/>
<line x1="72" y1="232" x2="408" y2="232" stroke="#171A20" stroke-width="3" stroke-linecap="round"/>
<line x1="72" y1="232" x2="72" y2="64" stroke="#171A20" stroke-width="3" stroke-linecap="round"/>
<!-- 두 봉우리(혼합/확장 계열) -->
<g stroke="#171A20" stroke-width="2.5" fill="#EAF2F9">
<rect x="100" y="150" width="26" height="82"/>
<rect x="132" y="118" width="26" height="114"/>
<rect x="164" y="160" width="26" height="72"/>
<rect x="196" y="186" width="26" height="46"/>
<rect x="240" y="150" width="26" height="82"/>
<rect x="272" y="128" width="26" height="104"/>
<rect x="304" y="172" width="26" height="60"/>
</g>
<!-- k계단 재귀 곡선(Sky) -->
<path d="M 113 142 Q 200 90 285 120" fill="none" stroke="#4A90C2" stroke-width="5" stroke-linecap="round"/>
<text x="120" y="104" font-family="ui-monospace,Consolas,monospace" font-size="11" fill="#4A90C2">k차 재귀 확장</text>
<g fill="#4A90C2"><rect x="446" y="272" width="8" height="8"/><rect x="454" y="264" width="8" height="8"/><rect x="462" y="256" width="8" height="8"/></g>
</svg>
