<svg xmlns="http://www.w3.org/2000/svg" viewBox="0 0 480 300">
  <!-- tkLeen 이론 사전 커버 · 플랫 카툰 v1 — 인플레이션총클레임영향: 같은 사고라도 시간이 갈수록 커지는 클레임 막대와 인플레 추세선 -->
  <defs>
    <pattern id="dots" width="28" height="28" patternUnits="userSpaceOnUse">
      <circle cx="14" cy="14" r="1.3" fill="#171A20" fill-opacity=".05"/>
    </pattern>
  </defs>
  <rect width="480" height="300" fill="#FAFAF7"/>
  <rect width="480" height="300" fill="url(#dots)"/>
  <path d="M 72 70 L 72 238 L 420 238" fill="none" stroke="#171A20" stroke-width="3" stroke-linecap="round" stroke-linejoin="round"/>
  <g fill="#EAF2F9" stroke="#171A20" stroke-width="2.5">
    <rect x="98" y="200" width="36" height="36"/>
    <rect x="160" y="186" width="36" height="50"/>
    <rect x="222" y="166" width="36" height="70"/>
    <rect x="284" y="140" width="36" height="96"/>
    <rect x="346" y="106" width="36" height="130"/>
  </g>
  <path d="M 100 196 C 180 178 270 140 400 84" fill="none" stroke="#4A90C2" stroke-width="5" stroke-linecap="round"/>
  <path d="M 400 84 L 388 86 M 400 84 L 396 95" fill="none" stroke="#4A90C2" stroke-width="5" stroke-linecap="round"/>
  <text x="82" y="64" font-family="ui-monospace,Consolas,monospace" font-size="12" fill="#171A20" opacity=".55">X·e^(δt)</text>
  <text x="396" y="260" font-family="ui-monospace,Consolas,monospace" font-size="12" fill="#171A20" opacity=".55">t →</text>
  <g transform="translate(118 156)">
    <circle r="13" fill="#FFFFFF" stroke="#171A20" stroke-width="3"/>
    <circle cx="-4.5" cy="-2" r="1.8" fill="#171A20"/><circle cx="4.5" cy="-2" r="1.8" fill="#171A20"/>
    <path d="M -4.5 5 L 4.5 5" fill="none" stroke="#171A20" stroke-width="2.2" stroke-linecap="round"/>
    <path d="M 17 -11 q 3.5 4.5 0 7 q -3.5 -2.5 0 -7" fill="#4A90C2"/>
  </g>
  <g fill="#4A90C2"><rect x="446" y="272" width="8" height="8"/><rect x="454" y="264" width="8" height="8"/><rect x="462" y="256" width="8" height="8"/></g>
</svg>
