<svg xmlns="http://www.w3.org/2000/svg" viewBox="0 0 480 300">
<!-- tkLeen 이론 사전 커버 · 플랫 카툰 v1 — 크라메르–룬드베리 조건과 추정: 조정계수 방정식의 근 R로 상한을 잡음 -->
<defs>
<pattern id="dots" width="28" height="28" patternUnits="userSpaceOnUse"><circle cx="14" cy="14" r="1.3" fill="#171A20" fill-opacity=".05"/></pattern>
</defs>
<rect width="480" height="300" fill="#FAFAF7"/>
<rect width="480" height="300" fill="url(#dots)"/>
<line x1="72" y1="180" x2="408" y2="180" stroke="#171A20" stroke-width="3" stroke-linecap="round"/>
<line x1="120" y1="232" x2="120" y2="72" stroke="#171A20" stroke-width="3" stroke-linecap="round"/>
<!-- 적률생성함수형 곡선이 0을 가르는 근 R -->
<path d="M 120 150 Q 200 250 270 180 Q 320 130 372 80" fill="none" stroke="#4A90C2" stroke-width="5" stroke-linecap="round"/>
<circle cx="270" cy="180" r="6" fill="#171A20"/>
<line x1="270" y1="180" x2="270" y2="200" stroke="#171A20" stroke-width="2.5" stroke-dasharray="4 4"/>
<text x="270" y="218" text-anchor="middle" font-family="ui-monospace,Consolas,monospace" font-size="13" fill="#171A20" fill-opacity=".7">R</text>
<text x="150" y="108" font-family="ui-monospace,Consolas,monospace" font-size="11" fill="#4A90C2">조정방정식의 근</text>
<g transform="translate(348 92)"><circle r="13" fill="#FFFFFF" stroke="#171A20" stroke-width="3"/><circle cx="-4.5" cy="-2" r="1.8" fill="#171A20"/><circle cx="4.5" cy="-2" r="1.8" fill="#171A20"/><path d="M -5 4 Q 0 8.5 5 4" fill="none" stroke="#171A20" stroke-width="2.2" stroke-linecap="round"/></g>
<g fill="#4A90C2"><rect x="446" y="272" width="8" height="8"/><rect x="454" y="264" width="8" height="8"/><rect x="462" y="256" width="8" height="8"/></g>
</svg>
