<svg xmlns="http://www.w3.org/2000/svg" viewBox="0 0 480 300">
<!-- tkLeen 이론 사전 커버 · 플랫 카툰 v1 — 클레임 빈도: 일정 기간 발생한 클레임 건수의 분포 -->
<defs>
<pattern id="dots" width="28" height="28" patternUnits="userSpaceOnUse"><circle cx="14" cy="14" r="1.3" fill="#171A20" fill-opacity=".05"/></pattern>
</defs>
<rect width="480" height="300" fill="#FAFAF7"/>
<rect width="480" height="300" fill="url(#dots)"/>
<line x1="72" y1="232" x2="408" y2="232" stroke="#171A20" stroke-width="3" stroke-linecap="round"/>
<line x1="72" y1="232" x2="72" y2="64" stroke="#171A20" stroke-width="3" stroke-linecap="round"/>
<!-- 건수 분포 막대 -->
<g stroke="#171A20" stroke-width="2.5" fill="#EAF2F9">
<rect x="104" y="150" width="36" height="82"/>
<rect x="150" y="108" width="36" height="124"/>
<rect x="196" y="128" width="36" height="104"/>
<rect x="242" y="170" width="36" height="62"/>
<rect x="288" y="198" width="36" height="34"/>
<rect x="334" y="214" width="36" height="18"/>
</g>
<!-- 포아송 곡선(Sky) -->
<path d="M 122 142 Q 200 96 352 214" fill="none" stroke="#4A90C2" stroke-width="5" stroke-linecap="round"/>
<text x="150" y="96" font-family="ui-monospace,Consolas,monospace" font-size="12" fill="#4A90C2">N ~ Poisson(λ)</text>
<text x="396" y="250" text-anchor="end" font-family="ui-monospace,Consolas,monospace" font-size="12" fill="#171A20" fill-opacity=".55">건수 k</text>
<g fill="#4A90C2"><rect x="446" y="272" width="8" height="8"/><rect x="454" y="264" width="8" height="8"/><rect x="462" y="256" width="8" height="8"/></g>
</svg>
