<svg xmlns="http://www.w3.org/2000/svg" viewBox="0 0 480 300">
  <!-- tkLeen 이론 사전 커버 · 플랫 카툰 v1 — 대기행렬이론: 대기열에서 서버(μ)로 들어가 처리되고 떠나는 고객 흐름 -->
  <defs><pattern id="dots" width="28" height="28" patternUnits="userSpaceOnUse"><circle cx="14" cy="14" r="1.3" fill="#171A20" fill-opacity=".05"/></pattern></defs>
  <rect width="480" height="300" fill="#FAFAF7"/>
  <rect width="480" height="300" fill="url(#dots)"/>
  <line x1="40" y1="205" x2="442" y2="205" stroke="#171A20" stroke-width="3" stroke-linecap="round"/><rect x="300" y="158" width="74" height="54" rx="6" fill="#EAF2F9" stroke="#171A20" stroke-width="3"/><text x="330" y="190" font-family="ui-monospace,Consolas,monospace" font-size="12" fill="#171A20" fill-opacity=".55">&#956;</text><g transform="translate(80 182)"><circle r="13" fill="#FFFFFF" stroke="#171A20" stroke-width="3"/><circle cx="-4.5" cy="-2" r="1.8" fill="#171A20"/><circle cx="4.5" cy="-2" r="1.8" fill="#171A20"/><path d="M -4.5 5 L 4.5 5" fill="none" stroke="#171A20" stroke-width="2.2" stroke-linecap="round"/></g><g transform="translate(120 182)"><circle r="13" fill="#FFFFFF" stroke="#171A20" stroke-width="3"/><circle cx="-4.5" cy="-2" r="1.8" fill="#171A20"/><circle cx="4.5" cy="-2" r="1.8" fill="#171A20"/><path d="M -4.5 5 L 4.5 5" fill="none" stroke="#171A20" stroke-width="2.2" stroke-linecap="round"/></g><g transform="translate(160 182)"><circle r="13" fill="#FFFFFF" stroke="#171A20" stroke-width="3"/><circle cx="-4.5" cy="-2" r="1.8" fill="#171A20"/><circle cx="4.5" cy="-2" r="1.8" fill="#171A20"/><path d="M -5 4 Q 0 8.5 5 4" fill="none" stroke="#171A20" stroke-width="2.2" stroke-linecap="round"/></g><line x1="192.0" y1="182.0" x2="287.0" y2="182.0" stroke="#4A90C2" stroke-width="5" stroke-linecap="round"/><polygon points="296.0,182.0 287.9,185.9 287.9,178.1" fill="#4A90C2"/><line x1="378.0" y1="182.0" x2="403.0" y2="182.0" stroke="#4A90C2" stroke-width="5" stroke-linecap="round"/><polygon points="412.0,182.0 403.9,185.9 403.9,178.1" fill="#4A90C2"/><g transform="translate(428 182)"><circle r="13" fill="#FFFFFF" stroke="#171A20" stroke-width="3"/><circle cx="-4.5" cy="-2" r="1.8" fill="#171A20"/><circle cx="4.5" cy="-2" r="1.8" fill="#171A20"/><path d="M -5 3 Q 0 9.5 5 3 Z" fill="#171A20"/></g><text x="70" y="150" font-family="ui-monospace,Consolas,monospace" font-size="12" fill="#171A20" fill-opacity=".55">&#955;</text>
  <g fill="#4A90C2"><rect x="446" y="272" width="8" height="8"/><rect x="454" y="264" width="8" height="8"/><rect x="462" y="256" width="8" height="8"/></g>
</svg>
