<svg xmlns="http://www.w3.org/2000/svg" viewBox="0 0 480 300">
  <!-- tkLeen 이론 사전 커버 · 플랫 카툰 v1 — 랜덤워크: 한 보폭씩 오르내리며 누적되는 이산시간 경로 -->
  <defs><pattern id="dots" width="28" height="28" patternUnits="userSpaceOnUse"><circle cx="14" cy="14" r="1.3" fill="#171A20" fill-opacity=".05"/></pattern></defs>
  <rect width="480" height="300" fill="#FAFAF7"/>
  <rect width="480" height="300" fill="url(#dots)"/>
  <line x1="60" y1="225" x2="430" y2="225" stroke="#171A20" stroke-width="3" stroke-linecap="round"/><line x1="60" y1="225" x2="60" y2="70" stroke="#171A20" stroke-width="3" stroke-linecap="round"/><line x1="60" y1="225" x2="60" y2="222" stroke="#171A20" stroke-width="1.5"/><line x1="96" y1="225" x2="96" y2="222" stroke="#171A20" stroke-width="1.5"/><line x1="132" y1="225" x2="132" y2="222" stroke="#171A20" stroke-width="1.5"/><line x1="168" y1="225" x2="168" y2="222" stroke="#171A20" stroke-width="1.5"/><line x1="204" y1="225" x2="204" y2="222" stroke="#171A20" stroke-width="1.5"/><line x1="240" y1="225" x2="240" y2="222" stroke="#171A20" stroke-width="1.5"/><line x1="276" y1="225" x2="276" y2="222" stroke="#171A20" stroke-width="1.5"/><line x1="312" y1="225" x2="312" y2="222" stroke="#171A20" stroke-width="1.5"/><line x1="348" y1="225" x2="348" y2="222" stroke="#171A20" stroke-width="1.5"/><line x1="384" y1="225" x2="384" y2="222" stroke="#171A20" stroke-width="1.5"/><line x1="420" y1="225" x2="420" y2="222" stroke="#171A20" stroke-width="1.5"/><path d="M 70 170 L 106 148 L 142 126 L 178 146 L 214 124 L 250 102 L 286 90 L 322 90 L 358 90 L 394 90" fill="none" stroke="#4A90C2" stroke-width="5" stroke-linejoin="round" stroke-linecap="round"/><circle cx="70" cy="170" r="3.2" fill="#171A20"/><circle cx="106" cy="148" r="3.2" fill="#171A20"/><circle cx="142" cy="126" r="3.2" fill="#171A20"/><circle cx="178" cy="146" r="3.2" fill="#171A20"/><circle cx="214" cy="124" r="3.2" fill="#171A20"/><circle cx="250" cy="102" r="3.2" fill="#171A20"/><circle cx="286" cy="90" r="3.2" fill="#171A20"/><circle cx="322" cy="90" r="3.2" fill="#171A20"/><circle cx="358" cy="90" r="3.2" fill="#171A20"/><circle cx="394" cy="90" r="3.2" fill="#171A20"/><g transform="translate(398 70)"><circle r="13" fill="#FFFFFF" stroke="#171A20" stroke-width="3"/><circle cx="-4.5" cy="-2" r="1.8" fill="#171A20"/><circle cx="4.5" cy="-2" r="1.8" fill="#171A20"/><path d="M -5 4 Q 0 8.5 5 4" fill="none" stroke="#171A20" stroke-width="2.2" stroke-linecap="round"/></g><text x="64" y="82" font-family="ui-monospace,Consolas,monospace" font-size="12" fill="#171A20" fill-opacity=".55">S&#8345;</text>
  <g fill="#4A90C2"><rect x="446" y="272" width="8" height="8"/><rect x="454" y="264" width="8" height="8"/><rect x="462" y="256" width="8" height="8"/></g>
</svg>
