<svg xmlns="http://www.w3.org/2000/svg" viewBox="0 0 480 300">
  <!-- tkLeen 이론 사전 커버 · 플랫 카툰 v1 — 마르코프연쇄몬테카를로: 목표분포 위를 점프하며 표본을 만드는 마르코프 연쇄 -->
  <defs><pattern id="dots" width="28" height="28" patternUnits="userSpaceOnUse"><circle cx="14" cy="14" r="1.3" fill="#171A20" fill-opacity=".05"/></pattern></defs>
  <rect width="480" height="300" fill="#FAFAF7"/>
  <rect width="480" height="300" fill="url(#dots)"/>
  <path d="M 60 200 C 150 200 170 80 240 80 C 310 80 330 200 420 200" fill="#EAF2F9" stroke="#4A90C2" stroke-width="5"/><line x1="120.0" y1="175.0" x2="168.0" y2="175.0" stroke="#171A20" stroke-width="2.5" stroke-linecap="round"/><polygon points="175.0,175.0 168.7,178.0 168.7,172.0" fill="#171A20"/><line x1="175.0" y1="175.0" x2="223.0" y2="175.0" stroke="#171A20" stroke-width="2.5" stroke-linecap="round"/><polygon points="230.0,175.0 223.7,178.0 223.7,172.0" fill="#171A20"/><line x1="230.0" y1="175.0" x2="278.0" y2="175.0" stroke="#171A20" stroke-width="2.5" stroke-linecap="round"/><polygon points="285.0,175.0 278.7,178.0 278.7,172.0" fill="#171A20"/><line x1="285.0" y1="175.0" x2="333.0" y2="175.0" stroke="#171A20" stroke-width="2.5" stroke-linecap="round"/><polygon points="340.0,175.0 333.7,178.0 333.7,172.0" fill="#171A20"/><circle cx="120" cy="175" r="4" fill="#171A20"/><circle cx="175" cy="175" r="4" fill="#171A20"/><circle cx="230" cy="175" r="4" fill="#171A20"/><circle cx="285" cy="175" r="4" fill="#171A20"/><circle cx="340" cy="175" r="4" fill="#171A20"/><g transform="translate(240 120)"><circle r="13" fill="#FFFFFF" stroke="#171A20" stroke-width="3"/><circle cx="-4.5" cy="-2" r="1.8" fill="#171A20"/><circle cx="4.5" cy="-2" r="1.8" fill="#171A20"/><path d="M -5 4 Q 0 8.5 5 4" fill="none" stroke="#171A20" stroke-width="2.2" stroke-linecap="round"/></g><text x="225" y="215" font-family="ui-monospace,Consolas,monospace" font-size="12" fill="#171A20" fill-opacity=".55">&#960;</text>
  <g fill="#4A90C2"><rect x="446" y="272" width="8" height="8"/><rect x="454" y="264" width="8" height="8"/><rect x="462" y="256" width="8" height="8"/></g>
</svg>
