<svg xmlns="http://www.w3.org/2000/svg" viewBox="0 0 480 300">
  <!-- tkLeen 이론 사전 커버 · 플랫 카툰 v1 — 마르코프연쇄와과정: 상태 사이를 전이확률로 옮겨다니는 마르코프 연쇄 -->
  <defs><pattern id="dots" width="28" height="28" patternUnits="userSpaceOnUse"><circle cx="14" cy="14" r="1.3" fill="#171A20" fill-opacity=".05"/></pattern></defs>
  <rect width="480" height="300" fill="#FAFAF7"/>
  <rect width="480" height="300" fill="url(#dots)"/>
  <circle cx="110" cy="160" r="20" fill="#EAF2F9" stroke="#171A20" stroke-width="3"/><circle cx="360" cy="110" r="20" fill="#EAF2F9" stroke="#171A20" stroke-width="3"/><circle cx="300" cy="225" r="20" fill="#EAF2F9" stroke="#171A20" stroke-width="3"/><line x1="132.0" y1="152.0" x2="329.1" y2="119.5" stroke="#4A90C2" stroke-width="4" stroke-linecap="round"/><polygon points="338.0,118.0 330.6,123.2 329.4,115.5" fill="#4A90C2"/><line x1="352.0" y1="132.0" x2="320.0" y2="196.9" stroke="#4A90C2" stroke-width="4" stroke-linecap="round"/><polygon points="316.0,205.0 316.1,196.0 323.1,199.5" fill="#4A90C2"/><line x1="282.0" y1="212.0" x2="136.7" y2="174.3" stroke="#4A90C2" stroke-width="4" stroke-linecap="round"/><polygon points="128.0,172.0 136.8,170.2 134.9,177.8" fill="#4A90C2"/><text x="104" y="165" font-family="ui-monospace,Consolas,monospace" font-size="12" fill="#171A20" fill-opacity=".55">1</text><text x="354" y="115" font-family="ui-monospace,Consolas,monospace" font-size="12" fill="#171A20" fill-opacity=".55">2</text><text x="294" y="230" font-family="ui-monospace,Consolas,monospace" font-size="12" fill="#171A20" fill-opacity=".55">3</text><path d="M 96 148 q -22 -16 -2 -30 q 16 -4 14 14" fill="none" stroke="#171A20" stroke-width="2.5"/><text x="60" y="120" font-family="ui-monospace,Consolas,monospace" font-size="12" fill="#171A20" fill-opacity=".55">p&#7522;&#11388;</text>
  <g fill="#4A90C2"><rect x="446" y="272" width="8" height="8"/><rect x="454" y="264" width="8" height="8"/><rect x="462" y="256" width="8" height="8"/></g>
</svg>
