<svg xmlns="http://www.w3.org/2000/svg" viewBox="0 0 480 300">
  <!-- tkLeen 이론 사전 커버 · 플랫 카툰 v1 — 마팅게일: 미래 기댓값이 현재와 같은 '공정한 게임' 경로 -->
  <defs><pattern id="dots" width="28" height="28" patternUnits="userSpaceOnUse"><circle cx="14" cy="14" r="1.3" fill="#171A20" fill-opacity=".05"/></pattern></defs>
  <rect width="480" height="300" fill="#FAFAF7"/>
  <rect width="480" height="300" fill="url(#dots)"/>
  <line x1="60" y1="215" x2="430" y2="215" stroke="#171A20" stroke-width="3" stroke-linecap="round"/><line x1="60" y1="215" x2="60" y2="70" stroke="#171A20" stroke-width="3" stroke-linecap="round"/><line x1="60" y1="140" x2="430" y2="140" stroke="#171A20" stroke-width="2.5" stroke-dasharray="7 6"/><path d="M 60 140 C 110 100 130 180 175 150 C 220 120 250 180 295 135 C 330 105 365 175 430 140" fill="none" stroke="#4A90C2" stroke-width="5" stroke-linecap="round"/><g transform="translate(295 118)"><circle r="13" fill="#FFFFFF" stroke="#171A20" stroke-width="3"/><circle cx="-4.5" cy="-2" r="1.8" fill="#171A20"/><circle cx="4.5" cy="-2" r="1.8" fill="#171A20"/><path d="M -4.5 5 L 4.5 5" fill="none" stroke="#171A20" stroke-width="2.2" stroke-linecap="round"/></g><text x="64" y="132" font-family="ui-monospace,Consolas,monospace" font-size="12" fill="#171A20" fill-opacity=".55">E[M]</text>
  <g fill="#4A90C2"><rect x="446" y="272" width="8" height="8"/><rect x="454" y="264" width="8" height="8"/><rect x="462" y="256" width="8" height="8"/></g>
</svg>
