<svg xmlns="http://www.w3.org/2000/svg" viewBox="0 0 480 300">
  <!-- tkLeen 이론 사전 커버 · 플랫 카툰 v1 — 보험계리마르코프모형: 건강·질병·사망 다중상태 전이로 보는 보험계리 모형 -->
  <defs><pattern id="dots" width="28" height="28" patternUnits="userSpaceOnUse"><circle cx="14" cy="14" r="1.3" fill="#171A20" fill-opacity=".05"/></pattern></defs>
  <rect width="480" height="300" fill="#FAFAF7"/>
  <rect width="480" height="300" fill="url(#dots)"/>
  <rect x="55" y="150" width="92" height="44" rx="8" fill="#EAF2F9" stroke="#171A20" stroke-width="3"/><rect x="195" y="150" width="92" height="44" rx="8" fill="#FFF" stroke="#171A20" stroke-width="3"/><rect x="335" y="150" width="92" height="44" rx="8" fill="#EAF2F9" stroke="#171A20" stroke-width="3"/><line x1="149.0" y1="172.0" x2="184.0" y2="172.0" stroke="#4A90C2" stroke-width="4" stroke-linecap="round"/><polygon points="193.0,172.0 184.9,175.9 184.9,168.1" fill="#4A90C2"/><line x1="289.0" y1="172.0" x2="324.0" y2="172.0" stroke="#4A90C2" stroke-width="4" stroke-linecap="round"/><polygon points="333.0,172.0 324.9,175.9 324.9,168.1" fill="#4A90C2"/><path d="M 241 148 q 0 -26 -90 -22" fill="none" stroke="#171A20" stroke-width="2.2"/><line x1="170.0" y1="127.0" x2="158.0" y2="127.6" stroke="#171A20" stroke-width="2.2" stroke-linecap="round"/><polygon points="151.0,128.0 157.1,124.6 157.5,130.7" fill="#171A20"/><text x="78" y="177" font-family="ui-monospace,Consolas,monospace" font-size="12" fill="#171A20" fill-opacity=".55">H</text><text x="228" y="177" font-family="ui-monospace,Consolas,monospace" font-size="12" fill="#171A20" fill-opacity=".55">I</text><text x="368" y="177" font-family="ui-monospace,Consolas,monospace" font-size="12" fill="#171A20" fill-opacity=".55">D</text>
  <g fill="#4A90C2"><rect x="446" y="272" width="8" height="8"/><rect x="454" y="264" width="8" height="8"/><rect x="462" y="256" width="8" height="8"/></g>
</svg>
