<svg xmlns="http://www.w3.org/2000/svg" viewBox="0 0 480 300">
  <!-- tkLeen 이론 사전 커버 · 플랫 카툰 v1 — 의사결정이론: 분기 트리 앞에서 손실이 가장 작은 경로(Sky)를 고르는 결정자 -->
  <defs>
    <pattern id="dots" width="28" height="28" patternUnits="userSpaceOnUse">
      <circle cx="14" cy="14" r="1.3" fill="#171A20" fill-opacity=".05"/>
    </pattern>
  </defs>
  <rect width="480" height="300" fill="#FAFAF7"/>
  <rect width="480" height="300" fill="url(#dots)"/>
  <circle cx="150" cy="150" r="7" fill="#FFFFFF" stroke="#171A20" stroke-width="3"/>
  <path d="M 157 146 C 200 120 240 104 290 96" fill="none" stroke="#171A20" stroke-width="3" stroke-linecap="round"/>
  <path d="M 157 154 C 200 180 240 196 290 204" fill="none" stroke="#4A90C2" stroke-width="5" stroke-linecap="round"/>
  <circle cx="297" cy="95" r="6" fill="#EAF2F9" stroke="#171A20" stroke-width="2.5"/>
  <circle cx="297" cy="205" r="6" fill="#EAF2F9" stroke="#171A20" stroke-width="2.5"/>
  <path d="M 303 92 L 348 78 M 303 99 L 348 112" fill="none" stroke="#171A20" stroke-width="2.5" stroke-linecap="round"/>
  <path d="M 303 202 L 348 190" fill="none" stroke="#4A90C2" stroke-width="5" stroke-linecap="round"/>
  <path d="M 303 209 L 348 224" fill="none" stroke="#171A20" stroke-width="2.5" stroke-linecap="round"/>
  <text x="358" y="82" font-family="ui-monospace,Consolas,monospace" font-size="12" fill="#171A20" opacity=".55">L=9</text>
  <text x="358" y="117" font-family="ui-monospace,Consolas,monospace" font-size="12" fill="#171A20" opacity=".55">L=4</text>
  <text x="358" y="194" font-family="ui-monospace,Consolas,monospace" font-size="12" fill="#171A20" opacity=".55">L=1</text>
  <text x="358" y="229" font-family="ui-monospace,Consolas,monospace" font-size="12" fill="#171A20" opacity=".55">L=3</text>
  <text x="128" y="118" font-family="ui-monospace,Consolas,monospace" font-size="12" fill="#171A20" opacity=".55">min E[L]</text>
  <g transform="translate(96 178)">
    <circle r="13" fill="#FFFFFF" stroke="#171A20" stroke-width="3"/>
    <circle cx="-4.5" cy="-2" r="1.8" fill="#171A20"/><circle cx="4.5" cy="-2" r="1.8" fill="#171A20"/>
    <path d="M -4.5 5 L 4.5 5" fill="none" stroke="#171A20" stroke-width="2.2" stroke-linecap="round"/>
  </g>
  <g fill="#4A90C2"><rect x="446" y="272" width="8" height="8"/><rect x="454" y="264" width="8" height="8"/><rect x="462" y="256" width="8" height="8"/></g>
</svg>
