<svg xmlns="http://www.w3.org/2000/svg" viewBox="0 0 480 300">
  <!-- tkLeen 이론 사전 커버 · 플랫 카툰 v1 — 이산다변량분포: 두 건수 (i,j) 격자 위 결합확률 버블, 한 칸이 도드라진다 -->
  <defs>
    <pattern id="dots" width="28" height="28" patternUnits="userSpaceOnUse">
      <circle cx="14" cy="14" r="1.3" fill="#171A20" fill-opacity=".05"/>
    </pattern>
  </defs>
  <rect width="480" height="300" fill="#FAFAF7"/>
  <rect width="480" height="300" fill="url(#dots)"/>
  <path d="M 96 70 L 96 238 L 420 238" fill="none" stroke="#171A20" stroke-width="3" stroke-linecap="round" stroke-linejoin="round"/>
  <g stroke="#171A20" stroke-width="1.5" opacity=".25">
    <path d="M 156 238 L 156 86 M 216 238 L 216 86 M 276 238 L 276 86 M 336 238 L 336 86"/>
    <path d="M 96 198 L 404 198 M 96 158 L 404 158 M 96 118 L 404 118"/>
  </g>
  <g fill="#EAF2F9" stroke="#171A20" stroke-width="2.5">
    <circle cx="156" cy="198" r="17"/>
    <circle cx="216" cy="198" r="12"/>
    <circle cx="156" cy="158" r="12"/>
    <circle cx="276" cy="158" r="9"/>
    <circle cx="276" cy="118" r="6"/>
    <circle cx="336" cy="198" r="6"/>
  </g>
  <circle cx="216" cy="158" r="14" fill="#4A90C2" stroke="#171A20" stroke-width="2.5"/>
  <text x="104" y="64" font-family="ui-monospace,Consolas,monospace" font-size="12" fill="#171A20" opacity=".55">N2</text>
  <text x="396" y="260" font-family="ui-monospace,Consolas,monospace" font-size="12" fill="#171A20" opacity=".55">N1 →</text>
  <text x="248" y="100" font-family="ui-monospace,Consolas,monospace" font-size="12" fill="#171A20" opacity=".55">P(N1=i,N2=j)</text>
  <g transform="translate(420 110)">
    <circle r="13" fill="#FFFFFF" stroke="#171A20" stroke-width="3"/>
    <circle cx="-4.5" cy="-2" r="1.8" fill="#171A20"/><circle cx="4.5" cy="-2" r="1.8" fill="#171A20"/>
    <path d="M -5 4 Q 0 8.5 5 4" fill="none" stroke="#171A20" stroke-width="2.2" stroke-linecap="round"/>
  </g>
  <g fill="#4A90C2"><rect x="446" y="272" width="8" height="8"/><rect x="454" y="264" width="8" height="8"/><rect x="462" y="256" width="8" height="8"/></g>
</svg>
