<svg xmlns="http://www.w3.org/2000/svg" viewBox="0 0 480 300">
  <!-- tkLeen 이론 사전 커버 · 플랫 카툰 v1 — 재생성과정: 일정 시점마다 처음부터 다시 시작하는 재생 사이클 -->
  <defs><pattern id="dots" width="28" height="28" patternUnits="userSpaceOnUse"><circle cx="14" cy="14" r="1.3" fill="#171A20" fill-opacity=".05"/></pattern></defs>
  <rect width="480" height="300" fill="#FAFAF7"/>
  <rect width="480" height="300" fill="url(#dots)"/>
  <circle cx="240" cy="150" r="78" fill="none" stroke="#EAF2F9" stroke-width="14"/><path d="M 240 72 A 78 78 0 1 1 168 120" fill="none" stroke="#4A90C2" stroke-width="5"/><line x1="168.0" y1="120.0" x2="172.5" y2="106.4" stroke="#4A90C2" stroke-width="5" stroke-linecap="round"/><polygon points="176.0,96.0 177.4,106.9 168.3,103.9" fill="#4A90C2"/><circle cx="240" cy="72" r="6" fill="#171A20"/><text x="252" y="68" font-family="ui-monospace,Consolas,monospace" font-size="12" fill="#171A20" fill-opacity=".55">R</text><g transform="translate(240 150)"><circle r="13" fill="#FFFFFF" stroke="#171A20" stroke-width="3"/><circle cx="-4.5" cy="-2" r="1.8" fill="#171A20"/><circle cx="4.5" cy="-2" r="1.8" fill="#171A20"/><path d="M -5 4 Q 0 8.5 5 4" fill="none" stroke="#171A20" stroke-width="2.2" stroke-linecap="round"/></g>
  <g fill="#4A90C2"><rect x="446" y="272" width="8" height="8"/><rect x="454" y="264" width="8" height="8"/><rect x="462" y="256" width="8" height="8"/></g>
</svg>
