<svg xmlns="http://www.w3.org/2000/svg" viewBox="0 0 480 300">
  <!-- tkLeen 이론 사전 커버 · 플랫 카툰 v1 — 재생이론: i.i.d 간격으로 발생하는 갱신 시점과 누적 계수 -->
  <defs><pattern id="dots" width="28" height="28" patternUnits="userSpaceOnUse"><circle cx="14" cy="14" r="1.3" fill="#171A20" fill-opacity=".05"/></pattern></defs>
  <rect width="480" height="300" fill="#FAFAF7"/>
  <rect width="480" height="300" fill="url(#dots)"/>
  <line x1="60" y1="210" x2="430" y2="210" stroke="#171A20" stroke-width="3" stroke-linecap="round"/><line x1="60" y1="210" x2="60" y2="80" stroke="#171A20" stroke-width="3" stroke-linecap="round"/><line x1="110" y1="218" x2="110" y2="202" stroke="#4A90C2" stroke-width="5" stroke-linecap="round"/><line x1="165" y1="218" x2="165" y2="202" stroke="#4A90C2" stroke-width="5" stroke-linecap="round"/><line x1="235" y1="218" x2="235" y2="202" stroke="#4A90C2" stroke-width="5" stroke-linecap="round"/><line x1="290" y1="218" x2="290" y2="202" stroke="#4A90C2" stroke-width="5" stroke-linecap="round"/><line x1="375" y1="218" x2="375" y2="202" stroke="#4A90C2" stroke-width="5" stroke-linecap="round"/><circle cx="110" cy="196" r="4" fill="#171A20"/><circle cx="165" cy="196" r="4" fill="#171A20"/><circle cx="235" cy="196" r="4" fill="#171A20"/><circle cx="290" cy="196" r="4" fill="#171A20"/><circle cx="375" cy="196" r="4" fill="#171A20"/><path d="M 60 200 H110 V178 H165 V156 H235 V134 H290 V112 H375 V90 H430" fill="none" stroke="#171A20" stroke-width="2.5" stroke-linejoin="round"/><text x="132" y="235" font-family="ui-monospace,Consolas,monospace" font-size="12" fill="#171A20" fill-opacity=".55">Y&#8344;</text><text x="64" y="92" font-family="ui-monospace,Consolas,monospace" font-size="12" fill="#171A20" fill-opacity=".55">N&#8348;</text>
  <g fill="#4A90C2"><rect x="446" y="272" width="8" height="8"/><rect x="454" y="264" width="8" height="8"/><rect x="462" y="256" width="8" height="8"/></g>
</svg>
