<svg xmlns="http://www.w3.org/2000/svg" viewBox="0 0 480 300">
  <!-- tkLeen 이론 사전 커버 · 플랫 카툰 v1 — 정상과정: 시간 이동에 불변인 정상 파형(같은 형태 반복) -->
  <defs><pattern id="dots" width="28" height="28" patternUnits="userSpaceOnUse"><circle cx="14" cy="14" r="1.3" fill="#171A20" fill-opacity=".05"/></pattern></defs>
  <rect width="480" height="300" fill="#FAFAF7"/>
  <rect width="480" height="300" fill="url(#dots)"/>
  <line x1="50" y1="160" x2="432" y2="160" stroke="#171A20" stroke-width="3" stroke-linecap="round"/><line x1="50" y1="160" x2="50" y2="60" stroke="#171A20" stroke-width="3" stroke-linecap="round"/><path d="M 60 160 Q 90 100 120 160 T 180 160 T 240 160 T 300 160 T 360 160 T 420 160" fill="none" stroke="#4A90C2" stroke-width="5"/><rect x="95" y="92" width="78" height="120" fill="none" stroke="#171A20" stroke-width="2.2" stroke-dasharray="6 5"/><rect x="275" y="92" width="78" height="120" fill="none" stroke="#171A20" stroke-width="2.2" stroke-dasharray="6 5"/><line x1="173.0" y1="235.0" x2="267.0" y2="235.0" stroke="#171A20" stroke-width="2.5" stroke-linecap="round"/><polygon points="275.0,235.0 267.8,238.5 267.8,231.5" fill="#171A20"/><text x="208" y="250" font-family="ui-monospace,Consolas,monospace" font-size="12" fill="#171A20" fill-opacity=".55">+&#964;</text>
  <g fill="#4A90C2"><rect x="446" y="272" width="8" height="8"/><rect x="454" y="264" width="8" height="8"/><rect x="462" y="256" width="8" height="8"/></g>
</svg>
