<svg xmlns="http://www.w3.org/2000/svg" viewBox="0 0 480 300">
  <!-- tkLeen 이론 사전 커버 · 플랫 카툰 v1 — 코퓰러: 두 위험의 산점도, 우상단 꼬리에서 함께 움직이는 점들(Sky) -->
  <defs>
    <pattern id="dots" width="28" height="28" patternUnits="userSpaceOnUse">
      <circle cx="14" cy="14" r="1.3" fill="#171A20" fill-opacity=".05"/>
    </pattern>
  </defs>
  <rect width="480" height="300" fill="#FAFAF7"/>
  <rect width="480" height="300" fill="url(#dots)"/>
  <path d="M 96 70 L 96 238 L 420 238" fill="none" stroke="#171A20" stroke-width="3" stroke-linecap="round" stroke-linejoin="round"/>
  <g fill="#171A20" opacity=".45">
    <circle cx="130" cy="214" r="4"/><circle cx="152" cy="196" r="4"/><circle cx="146" cy="222" r="4"/>
    <circle cx="178" cy="204" r="4"/><circle cx="170" cy="180" r="4"/><circle cx="200" cy="190" r="4"/>
    <circle cx="216" cy="168" r="4"/><circle cx="196" cy="158" r="4"/><circle cx="238" cy="178" r="4"/>
    <circle cx="232" cy="148" r="4"/><circle cx="258" cy="160" r="4"/><circle cx="270" cy="136" r="4"/>
    <circle cx="252" cy="124" r="4"/><circle cx="290" cy="148" r="4"/><circle cx="296" cy="120" r="4"/>
  </g>
  <g fill="#4A90C2">
    <circle cx="330" cy="112" r="5.5"/><circle cx="352" cy="98" r="5.5"/><circle cx="344" cy="120" r="5.5"/>
    <circle cx="368" cy="106" r="5.5"/><circle cx="362" cy="86" r="5.5"/><circle cx="382" cy="92" r="5.5"/>
  </g>
  <path d="M 312 132 Q 354 132 392 78" fill="none" stroke="#171A20" stroke-width="2" stroke-dasharray="6 6" stroke-linecap="round" opacity=".4"/>
  <text x="104" y="64" font-family="ui-monospace,Consolas,monospace" font-size="12" fill="#171A20" opacity=".55">v=G(y)</text>
  <text x="376" y="260" font-family="ui-monospace,Consolas,monospace" font-size="12" fill="#171A20" opacity=".55">u=F(x)</text>
  <text x="288" y="70" font-family="ui-monospace,Consolas,monospace" font-size="12" fill="#171A20" opacity=".55">C(u,v)</text>
  <g transform="translate(150 110)">
    <circle r="13" fill="#FFFFFF" stroke="#171A20" stroke-width="3"/>
    <circle cx="-4.5" cy="-2" r="1.8" fill="#171A20"/><circle cx="4.5" cy="-2" r="1.8" fill="#171A20"/>
    <path d="M -4.5 5 L 4.5 5" fill="none" stroke="#171A20" stroke-width="2.2" stroke-linecap="round"/>
  </g>
  <g fill="#4A90C2"><rect x="446" y="272" width="8" height="8"/><rect x="454" y="264" width="8" height="8"/><rect x="462" y="256" width="8" height="8"/></g>
</svg>
