<svg xmlns="http://www.w3.org/2000/svg" viewBox="0 0 480 300">
  <!-- tkLeen 이론 사전 커버 · 플랫 카툰 v1 — 포아송과정: 무작위 시점에 발생하는 사건과 계단형 계수 N(t) -->
  <defs><pattern id="dots" width="28" height="28" patternUnits="userSpaceOnUse"><circle cx="14" cy="14" r="1.3" fill="#171A20" fill-opacity=".05"/></pattern></defs>
  <rect width="480" height="300" fill="#FAFAF7"/>
  <rect width="480" height="300" fill="url(#dots)"/>
  <line x1="60" y1="210" x2="430" y2="210" stroke="#171A20" stroke-width="3" stroke-linecap="round"/><line x1="60" y1="210" x2="60" y2="80" stroke="#171A20" stroke-width="3" stroke-linecap="round"/><circle cx="100" cy="210" r="5" fill="#4A90C2"/><circle cx="150" cy="210" r="5" fill="#4A90C2"/><circle cx="180" cy="210" r="5" fill="#4A90C2"/><circle cx="250" cy="210" r="5" fill="#4A90C2"/><circle cx="300" cy="210" r="5" fill="#4A90C2"/><circle cx="370" cy="210" r="5" fill="#4A90C2"/><path d="M 60 200 H100 V180 H150 V160 H180 V140 H250 V120 H300 V100 H370 V80 H430" fill="none" stroke="#171A20" stroke-width="2.5" stroke-linejoin="round"/><text x="64" y="92" font-family="ui-monospace,Consolas,monospace" font-size="12" fill="#171A20" fill-opacity=".55">N(t)</text><text x="360" y="232" font-family="ui-monospace,Consolas,monospace" font-size="12" fill="#171A20" fill-opacity=".55">t</text>
  <g fill="#4A90C2"><rect x="446" y="272" width="8" height="8"/><rect x="454" y="264" width="8" height="8"/><rect x="462" y="256" width="8" height="8"/></g>
</svg>
