<svg xmlns="http://www.w3.org/2000/svg" viewBox="0 0 480 300">
  <!-- tkLeen 이론 사전 커버 · 플랫 카툰 v1 — 혼합포아송분포: 운전자마다 다른 사고율(이질성)을 감마로 혼합 -->
  <defs><pattern id="dots" width="28" height="28" patternUnits="userSpaceOnUse"><circle cx="14" cy="14" r="1.3" fill="#171A20" fill-opacity=".05"/></pattern></defs>
  <rect width="480" height="300" fill="#FAFAF7"/>
  <rect width="480" height="300" fill="url(#dots)"/>
  <path d="M 60 205 C 120 205 130 95 200 95 C 270 95 285 205 420 205" fill="#EAF2F9" stroke="#4A90C2" stroke-width="5"/><g transform="translate(140 170)"><circle r="13" fill="#EEF4FF" stroke="#171A20" stroke-width="3"/><circle cx="-4.5" cy="-2" r="1.8" fill="#171A20"/><circle cx="4.5" cy="-2" r="1.8" fill="#171A20"/><path d="M -4.5 5 L 4.5 5" fill="none" stroke="#171A20" stroke-width="2.2" stroke-linecap="round"/></g><g transform="translate(200 150)"><circle r="13" fill="#ECFDF5" stroke="#171A20" stroke-width="3"/><circle cx="-4.5" cy="-2" r="1.8" fill="#171A20"/><circle cx="4.5" cy="-2" r="1.8" fill="#171A20"/><path d="M -5 4 Q 0 8.5 5 4" fill="none" stroke="#171A20" stroke-width="2.2" stroke-linecap="round"/></g><g transform="translate(262 178)"><circle r="13" fill="#FFF7ED" stroke="#171A20" stroke-width="3"/><circle cx="-4.5" cy="-2" r="1.8" fill="#171A20"/><circle cx="4.5" cy="-2" r="1.8" fill="#171A20"/><path d="M -4.5 5 L 4.5 5" fill="none" stroke="#171A20" stroke-width="2.2" stroke-linecap="round"/></g><text x="196" y="225" font-family="ui-monospace,Consolas,monospace" font-size="12" fill="#171A20" fill-opacity=".55">&#955;</text><text x="64" y="205" font-family="ui-monospace,Consolas,monospace" font-size="12" fill="#171A20" fill-opacity=".55">u(&#955;)</text>
  <g fill="#4A90C2"><rect x="446" y="272" width="8" height="8"/><rect x="454" y="264" width="8" height="8"/><rect x="462" y="256" width="8" height="8"/></g>
</svg>
