<svg xmlns="http://www.w3.org/2000/svg" viewBox="0 0 480 300">
  <!-- tkLeen 이론 사전 커버 · 플랫 카툰 v1 — 확률과정: 시간에 따라 무작위로 갈라지는 여러 표본경로 -->
  <defs><pattern id="dots" width="28" height="28" patternUnits="userSpaceOnUse"><circle cx="14" cy="14" r="1.3" fill="#171A20" fill-opacity=".05"/></pattern></defs>
  <rect width="480" height="300" fill="#FAFAF7"/>
  <rect width="480" height="300" fill="url(#dots)"/>
  <line x1="60" y1="150" x2="430" y2="150" stroke="#171A20" stroke-width="3" stroke-linecap="round"/><line x1="60" y1="150" x2="60" y2="60" stroke="#171A20" stroke-width="3" stroke-linecap="round"/><path d="M 60 150 C 130 120 170 90 240 95 C 320 100 360 70 430 78" fill="none" stroke="#4A90C2" stroke-width="5"/><path d="M 60 150 C 130 160 180 150 250 175 C 330 200 370 185 430 205" fill="none" stroke="#171A20" stroke-width="2.5"/><path d="M 60 150 C 140 140 190 130 250 130 C 330 130 370 145 430 138" fill="none" stroke="#171A20" stroke-width="2.5" stroke-opacity=".5"/><circle cx="60" cy="150" r="5" fill="#171A20"/><text x="64" y="82" font-family="ui-monospace,Consolas,monospace" font-size="12" fill="#171A20" fill-opacity=".55">X(t)</text>
  <g fill="#4A90C2"><rect x="446" y="272" width="8" height="8"/><rect x="454" y="264" width="8" height="8"/><rect x="462" y="256" width="8" height="8"/></g>
</svg>
